<svg xmlns="http://www.w3.org/2000/svg" xmlns:xlink="http://www.w3.org/1999/xlink" width="2000" zoomAndPan="magnify" viewBox="0 0 1500 1499.999933" height="2000" preserveAspectRatio="xMidYMid meet" version="1.0"><defs><clipPath id="0ade53dd3e"><path d="M 1500 322.5 L 1500 1177.5 C 1500 1355.613281 1355.613281 1500 1177.5 1500 L 322.5 1500 C 144.386719 1500 0 1355.613281 0 1177.5 L 0 322.5 C 0 144.386719 144.386719 0 322.5 0 L 1177.5 0 C 1355.613281 0 1500 144.386719 1500 322.5 Z M 1500 322.5 " clip-rule="nonzero"/></clipPath><clipPath id="c4dc5ebfad"><path d="M 0 0 L 1500 0 L 1500 1500 L 0 1500 Z M 0 0 " clip-rule="nonzero"/></clipPath><clipPath id="7d9eb5136b"><path d="M 1500 322.5 L 1500 1177.5 C 1500 1355.613281 1355.613281 1500 1177.5 1500 L 322.5 1500 C 144.386719 1500 0 1355.613281 0 1177.5 L 0 322.5 C 0 144.386719 144.386719 0 322.5 0 L 1177.5 0 C 1355.613281 0 1500 144.386719 1500 322.5 Z M 1500 322.5 " clip-rule="nonzero"/></clipPath><radialGradient gradientTransform="matrix(1, 0, 0, 1, 0.00003335, -0.00002)" gradientUnits="userSpaceOnUse" r="2121.322126" cx="0" id="fae2d4f293" cy="0" fx="0" fy="0"><stop stop-opacity="1" stop-color="rgb(7.839966%, 72.280884%, 59.97467%)" offset="0"/><stop stop-opacity="1" stop-color="rgb(7.839966%, 72.496033%, 59.931946%)" offset="0.015625"/><stop stop-opacity="1" stop-color="rgb(7.839966%, 72.679138%, 59.895325%)" offset="0.0273438"/><stop stop-opacity="1" stop-color="rgb(7.839966%, 72.86377%, 59.858704%)" offset="0.0390625"/><stop stop-opacity="1" stop-color="rgb(7.839966%, 73.046875%, 59.820557%)" offset="0.0507812"/><stop stop-opacity="1" stop-color="rgb(7.839966%, 73.231506%, 59.783936%)" offset="0.0625"/><stop stop-opacity="1" stop-color="rgb(7.839966%, 73.414612%, 59.747314%)" offset="0.0742188"/><stop stop-opacity="1" stop-color="rgb(7.839966%, 73.597717%, 59.710693%)" offset="0.0859375"/><stop stop-opacity="1" stop-color="rgb(7.839966%, 73.782349%, 59.674072%)" offset="0.0976562"/><stop stop-opacity="1" stop-color="rgb(7.839966%, 73.965454%, 59.637451%)" offset="0.109375"/><stop stop-opacity="1" stop-color="rgb(7.839966%, 74.150085%, 59.60083%)" offset="0.121094"/><stop stop-opacity="1" stop-color="rgb(7.839966%, 74.424744%, 59.545898%)" offset="0.132812"/><stop stop-opacity="1" stop-color="rgb(7.839966%, 74.79248%, 59.47113%)" offset="0.15625"/><stop stop-opacity="1" stop-color="rgb(7.839966%, 75.160217%, 59.397888%)" offset="0.179688"/><stop stop-opacity="1" stop-color="rgb(7.839966%, 75.527954%, 59.324646%)" offset="0.203125"/><stop stop-opacity="1" stop-color="rgb(7.839966%, 75.894165%, 59.251404%)" offset="0.226562"/><stop stop-opacity="1" stop-color="rgb(7.839966%, 76.261902%, 59.176636%)" offset="0.25"/><stop stop-opacity="1" stop-color="rgb(7.839966%, 76.599121%, 59.109497%)" offset="0.273438"/><stop stop-opacity="1" stop-color="rgb(7.839966%, 76.905823%, 59.048462%)" offset="0.292969"/><stop stop-opacity="1" stop-color="rgb(7.839966%, 77.212524%, 58.987427%)" offset="0.3125"/><stop stop-opacity="1" stop-color="rgb(7.839966%, 77.5177%, 58.926392%)" offset="0.332031"/><stop stop-opacity="1" stop-color="rgb(7.839966%, 77.824402%, 58.863831%)" offset="0.351562"/><stop stop-opacity="1" stop-color="rgb(7.839966%, 78.131104%, 58.802795%)" offset="0.371094"/><stop stop-opacity="1" stop-color="rgb(7.839966%, 78.405762%, 58.747864%)" offset="0.390625"/><stop stop-opacity="1" stop-color="rgb(7.839966%, 78.651428%, 58.699036%)" offset="0.40625"/><stop stop-opacity="1" stop-color="rgb(7.839966%, 78.895569%, 58.650208%)" offset="0.421875"/><stop stop-opacity="1" stop-color="rgb(7.839966%, 79.202271%, 58.589172%)" offset="0.4375"/><stop stop-opacity="1" stop-color="rgb(7.839966%, 79.508972%, 58.526611%)" offset="0.460938"/><stop stop-opacity="1" stop-color="rgb(7.839966%, 79.512024%, 58.633423%)" offset="0.476562"/><stop stop-opacity="1" stop-color="rgb(7.839966%, 79.240417%, 58.850098%)" offset="0.507812"/><stop stop-opacity="1" stop-color="rgb(7.839966%, 78.936768%, 59.01947%)" offset="0.511719"/><stop stop-opacity="1" stop-color="rgb(7.839966%, 78.634644%, 59.187317%)" offset="0.515625"/><stop stop-opacity="1" stop-color="rgb(7.839966%, 78.330994%, 59.355164%)" offset="0.519531"/><stop stop-opacity="1" stop-color="rgb(7.839966%, 78.027344%, 59.524536%)" offset="0.523438"/><stop stop-opacity="1" stop-color="rgb(7.839966%, 77.723694%, 59.692383%)" offset="0.527344"/><stop stop-opacity="1" stop-color="rgb(7.839966%, 77.420044%, 59.861755%)" offset="0.53125"/><stop stop-opacity="1" stop-color="rgb(7.839966%, 77.11792%, 60.029602%)" offset="0.535156"/><stop stop-opacity="1" stop-color="rgb(7.839966%, 76.81427%, 60.198975%)" offset="0.539062"/><stop stop-opacity="1" stop-color="rgb(7.839966%, 76.51062%, 60.366821%)" offset="0.542969"/><stop stop-opacity="1" stop-color="rgb(7.839966%, 76.20697%, 60.534668%)" offset="0.546875"/><stop stop-opacity="1" stop-color="rgb(7.839966%, 75.904846%, 60.704041%)" offset="0.550781"/><stop stop-opacity="1" stop-color="rgb(7.839966%, 75.601196%, 60.871887%)" offset="0.554688"/><stop stop-opacity="1" stop-color="rgb(7.839966%, 75.297546%, 61.04126%)" offset="0.558594"/><stop stop-opacity="1" stop-color="rgb(7.839966%, 74.993896%, 61.209106%)" offset="0.5625"/><stop stop-opacity="1" stop-color="rgb(7.839966%, 74.691772%, 61.378479%)" offset="0.566406"/><stop stop-opacity="1" stop-color="rgb(7.839966%, 74.388123%, 61.546326%)" offset="0.570312"/><stop stop-opacity="1" stop-color="rgb(7.839966%, 74.084473%, 61.715698%)" offset="0.574219"/><stop stop-opacity="1" stop-color="rgb(7.839966%, 73.780823%, 61.883545%)" offset="0.578125"/><stop stop-opacity="1" stop-color="rgb(7.839966%, 73.478699%, 62.051392%)" offset="0.582031"/><stop stop-opacity="1" stop-color="rgb(7.839966%, 73.175049%, 62.220764%)" offset="0.585938"/><stop stop-opacity="1" stop-color="rgb(7.839966%, 72.871399%, 62.388611%)" offset="0.589844"/><stop stop-opacity="1" stop-color="rgb(7.839966%, 72.567749%, 62.557983%)" offset="0.59375"/><stop stop-opacity="1" stop-color="rgb(7.839966%, 72.265625%, 62.72583%)" offset="0.597656"/><stop stop-opacity="1" stop-color="rgb(7.839966%, 71.961975%, 62.895203%)" offset="0.601562"/><stop stop-opacity="1" stop-color="rgb(7.839966%, 71.658325%, 63.063049%)" offset="0.605469"/><stop stop-opacity="1" stop-color="rgb(7.839966%, 71.354675%, 63.230896%)" offset="0.609375"/><stop stop-opacity="1" stop-color="rgb(7.839966%, 71.052551%, 63.400269%)" offset="0.613281"/><stop stop-opacity="1" stop-color="rgb(7.839966%, 70.748901%, 63.568115%)" offset="0.617188"/><stop stop-opacity="1" stop-color="rgb(7.839966%, 70.445251%, 63.737488%)" offset="0.621094"/><stop stop-opacity="1" stop-color="rgb(7.839966%, 70.141602%, 63.905334%)" offset="0.625"/><stop stop-opacity="1" stop-color="rgb(7.839966%, 69.839478%, 64.074707%)" offset="0.628906"/><stop stop-opacity="1" stop-color="rgb(7.839966%, 69.535828%, 64.242554%)" offset="0.632812"/><stop stop-opacity="1" stop-color="rgb(7.839966%, 69.232178%, 64.411926%)" offset="0.636719"/><stop stop-opacity="1" stop-color="rgb(7.839966%, 68.928528%, 64.579773%)" offset="0.640625"/><stop stop-opacity="1" stop-color="rgb(7.839966%, 68.624878%, 64.74762%)" offset="0.644531"/><stop stop-opacity="1" stop-color="rgb(7.839966%, 68.322754%, 64.916992%)" offset="0.648438"/><stop stop-opacity="1" stop-color="rgb(7.839966%, 68.019104%, 65.084839%)" offset="0.652344"/><stop stop-opacity="1" stop-color="rgb(7.839966%, 67.715454%, 65.254211%)" offset="0.65625"/><stop stop-opacity="1" stop-color="rgb(7.839966%, 67.411804%, 65.422058%)" offset="0.660156"/><stop stop-opacity="1" stop-color="rgb(7.839966%, 67.10968%, 65.591431%)" offset="0.664062"/><stop stop-opacity="1" stop-color="rgb(7.839966%, 66.80603%, 65.759277%)" offset="0.667969"/><stop stop-opacity="1" stop-color="rgb(7.839966%, 66.50238%, 65.927124%)" offset="0.671875"/><stop stop-opacity="1" stop-color="rgb(7.839966%, 66.19873%, 66.096497%)" offset="0.675781"/><stop stop-opacity="1" stop-color="rgb(7.839966%, 65.896606%, 66.264343%)" offset="0.679688"/><stop stop-opacity="1" stop-color="rgb(7.839966%, 65.592957%, 66.433716%)" offset="0.683594"/><stop stop-opacity="1" stop-color="rgb(7.839966%, 65.289307%, 66.601562%)" offset="0.6875"/><stop stop-opacity="1" stop-color="rgb(7.839966%, 64.985657%, 66.770935%)" offset="0.691406"/><stop stop-opacity="1" stop-color="rgb(7.839966%, 64.683533%, 66.938782%)" offset="0.695312"/><stop stop-opacity="1" stop-color="rgb(7.839966%, 64.379883%, 67.108154%)" offset="0.699219"/><stop stop-opacity="1" stop-color="rgb(7.839966%, 64.076233%, 67.276001%)" offset="0.703125"/><stop stop-opacity="1" stop-color="rgb(7.839966%, 63.772583%, 67.443848%)" offset="0.707031"/><stop stop-opacity="1" stop-color="rgb(7.839966%, 63.470459%, 67.61322%)" offset="0.710938"/><stop stop-opacity="1" stop-color="rgb(7.839966%, 63.166809%, 67.781067%)" offset="0.714844"/><stop stop-opacity="1" stop-color="rgb(7.839966%, 62.863159%, 67.950439%)" offset="0.71875"/><stop stop-opacity="1" stop-color="rgb(7.839966%, 62.559509%, 68.118286%)" offset="0.722656"/><stop stop-opacity="1" stop-color="rgb(7.839966%, 62.257385%, 68.287659%)" offset="0.726562"/><stop stop-opacity="1" stop-color="rgb(7.839966%, 61.953735%, 68.455505%)" offset="0.730469"/><stop stop-opacity="1" stop-color="rgb(7.839966%, 61.650085%, 68.623352%)" offset="0.734375"/><stop stop-opacity="1" stop-color="rgb(7.839966%, 61.346436%, 68.792725%)" offset="0.738281"/><stop stop-opacity="1" stop-color="rgb(7.839966%, 61.044312%, 68.960571%)" offset="0.742188"/><stop stop-opacity="1" stop-color="rgb(7.839966%, 60.740662%, 69.129944%)" offset="0.746094"/><stop stop-opacity="1" stop-color="rgb(7.839966%, 60.437012%, 69.297791%)" offset="0.75"/><stop stop-opacity="1" stop-color="rgb(7.839966%, 60.133362%, 69.467163%)" offset="0.753906"/><stop stop-opacity="1" stop-color="rgb(7.839966%, 59.829712%, 69.63501%)" offset="0.757812"/><stop stop-opacity="1" stop-color="rgb(7.839966%, 59.527588%, 69.804382%)" offset="0.761719"/><stop stop-opacity="1" stop-color="rgb(7.839966%, 59.223938%, 69.972229%)" offset="0.765625"/><stop stop-opacity="1" stop-color="rgb(7.839966%, 58.920288%, 70.140076%)" offset="0.769531"/><stop stop-opacity="1" stop-color="rgb(7.839966%, 58.616638%, 70.309448%)" offset="0.773438"/><stop stop-opacity="1" stop-color="rgb(7.839966%, 58.314514%, 70.477295%)" offset="0.777344"/><stop stop-opacity="1" stop-color="rgb(7.839966%, 58.010864%, 70.646667%)" offset="0.78125"/><stop stop-opacity="1" stop-color="rgb(7.839966%, 57.707214%, 70.814514%)" offset="0.785156"/><stop stop-opacity="1" stop-color="rgb(7.839966%, 57.403564%, 70.983887%)" offset="0.789062"/><stop stop-opacity="1" stop-color="rgb(7.839966%, 57.10144%, 71.151733%)" offset="0.792969"/><stop stop-opacity="1" stop-color="rgb(7.839966%, 56.797791%, 71.321106%)" offset="0.796875"/><stop stop-opacity="1" stop-color="rgb(7.839966%, 56.494141%, 71.488953%)" offset="0.800781"/><stop stop-opacity="1" stop-color="rgb(7.839966%, 56.190491%, 71.656799%)" offset="0.804688"/><stop stop-opacity="1" stop-color="rgb(7.839966%, 55.888367%, 71.826172%)" offset="0.808594"/><stop stop-opacity="1" stop-color="rgb(7.839966%, 55.584717%, 71.994019%)" offset="0.8125"/><stop stop-opacity="1" stop-color="rgb(7.839966%, 55.281067%, 72.163391%)" offset="0.816406"/><stop stop-opacity="1" stop-color="rgb(7.839966%, 54.977417%, 72.331238%)" offset="0.820312"/><stop stop-opacity="1" stop-color="rgb(7.839966%, 54.675293%, 72.50061%)" offset="0.824219"/><stop stop-opacity="1" stop-color="rgb(7.839966%, 54.371643%, 72.668457%)" offset="0.828125"/><stop stop-opacity="1" stop-color="rgb(7.839966%, 54.067993%, 72.836304%)" offset="0.832031"/><stop stop-opacity="1" stop-color="rgb(7.839966%, 53.764343%, 73.005676%)" offset="0.835938"/><stop stop-opacity="1" stop-color="rgb(7.839966%, 53.462219%, 73.173523%)" offset="0.839844"/><stop stop-opacity="1" stop-color="rgb(7.839966%, 53.158569%, 73.342896%)" offset="0.84375"/><stop stop-opacity="1" stop-color="rgb(7.839966%, 52.854919%, 73.510742%)" offset="0.847656"/><stop stop-opacity="1" stop-color="rgb(7.839966%, 52.55127%, 73.680115%)" offset="0.851562"/><stop stop-opacity="1" stop-color="rgb(7.839966%, 52.249146%, 73.847961%)" offset="0.855469"/><stop stop-opacity="1" stop-color="rgb(7.839966%, 51.945496%, 74.017334%)" offset="0.859375"/><stop stop-opacity="1" stop-color="rgb(7.839966%, 51.641846%, 74.185181%)" offset="0.863281"/><stop stop-opacity="1" stop-color="rgb(7.839966%, 51.338196%, 74.353027%)" offset="0.867188"/><stop stop-opacity="1" stop-color="rgb(7.839966%, 51.034546%, 74.5224%)" offset="0.871094"/><stop stop-opacity="1" stop-color="rgb(7.839966%, 50.732422%, 74.690247%)" offset="0.875"/><stop stop-opacity="1" stop-color="rgb(7.839966%, 50.428772%, 74.859619%)" offset="0.878906"/><stop stop-opacity="1" stop-color="rgb(7.839966%, 50.125122%, 75.027466%)" offset="0.882812"/><stop stop-opacity="1" stop-color="rgb(7.839966%, 49.821472%, 75.196838%)" offset="0.886719"/><stop stop-opacity="1" stop-color="rgb(7.839966%, 49.519348%, 75.364685%)" offset="0.890625"/><stop stop-opacity="1" stop-color="rgb(7.839966%, 49.215698%, 75.532532%)" offset="0.894531"/><stop stop-opacity="1" stop-color="rgb(7.839966%, 48.912048%, 75.701904%)" offset="0.898438"/><stop stop-opacity="1" stop-color="rgb(7.839966%, 48.608398%, 75.869751%)" offset="0.902344"/><stop stop-opacity="1" stop-color="rgb(7.839966%, 48.306274%, 76.039124%)" offset="0.90625"/><stop stop-opacity="1" stop-color="rgb(7.839966%, 48.002625%, 76.20697%)" offset="0.910156"/><stop stop-opacity="1" stop-color="rgb(7.839966%, 47.698975%, 76.376343%)" offset="0.914062"/><stop stop-opacity="1" stop-color="rgb(7.839966%, 47.395325%, 76.544189%)" offset="0.917969"/><stop stop-opacity="1" stop-color="rgb(7.839966%, 47.093201%, 76.713562%)" offset="0.921875"/><stop stop-opacity="1" stop-color="rgb(7.839966%, 46.789551%, 76.881409%)" offset="0.925781"/><stop stop-opacity="1" stop-color="rgb(7.839966%, 46.485901%, 77.049255%)" offset="0.929688"/><stop stop-opacity="1" stop-color="rgb(7.839966%, 46.182251%, 77.218628%)" offset="0.933594"/><stop stop-opacity="1" stop-color="rgb(7.839966%, 45.880127%, 77.386475%)" offset="0.9375"/><stop stop-opacity="1" stop-color="rgb(7.839966%, 45.576477%, 77.555847%)" offset="0.941406"/><stop stop-opacity="1" stop-color="rgb(7.839966%, 45.272827%, 77.723694%)" offset="0.945312"/><stop stop-opacity="1" stop-color="rgb(7.839966%, 44.969177%, 77.893066%)" offset="0.949219"/><stop stop-opacity="1" stop-color="rgb(7.839966%, 44.667053%, 78.060913%)" offset="0.953125"/><stop stop-opacity="1" stop-color="rgb(7.839966%, 44.363403%, 78.22876%)" offset="0.957031"/><stop stop-opacity="1" stop-color="rgb(7.839966%, 44.059753%, 78.398132%)" offset="0.960938"/><stop stop-opacity="1" stop-color="rgb(7.839966%, 43.756104%, 78.565979%)" offset="0.964844"/><stop stop-opacity="1" stop-color="rgb(7.839966%, 43.453979%, 78.735352%)" offset="0.96875"/><stop stop-opacity="1" stop-color="rgb(7.839966%, 43.15033%, 78.903198%)" offset="0.972656"/><stop stop-opacity="1" stop-color="rgb(7.839966%, 42.84668%, 79.072571%)" offset="0.976562"/><stop stop-opacity="1" stop-color="rgb(7.839966%, 42.54303%, 79.240417%)" offset="0.980469"/><stop stop-opacity="1" stop-color="rgb(7.839966%, 42.240906%, 79.40979%)" offset="0.984375"/><stop stop-opacity="1" stop-color="rgb(7.839966%, 41.937256%, 79.577637%)" offset="0.988281"/><stop stop-opacity="1" stop-color="rgb(7.839966%, 41.633606%, 79.745483%)" offset="0.992188"/><stop stop-opacity="1" stop-color="rgb(7.839966%, 41.329956%, 79.914856%)" offset="0.996094"/><stop stop-opacity="1" stop-color="rgb(7.839966%, 41.178894%, 79.998779%)" offset="1"/></radialGradient><clipPath id="694d388e83"><rect x="0" width="1500" y="0" height="1500"/></clipPath><clipPath id="9ffdcf5079"><path d="M 270 284.742188 L 1229 284.742188 L 1229 1025 L 270 1025 Z M 270 284.742188 " clip-rule="nonzero"/></clipPath><clipPath id="0913a2b117"><path d="M 513 1055 L 674 1055 L 674 1215.492188 L 513 1215.492188 Z M 513 1055 " clip-rule="nonzero"/></clipPath><clipPath id="94e2b4a7d9"><path d="M 969 1055 L 1130 1055 L 1130 1215.492188 L 969 1215.492188 Z M 969 1055 " clip-rule="nonzero"/></clipPath></defs><g clip-path="url(#0ade53dd3e)"><g transform="matrix(1, 0, 0, 1, 0, 0.000000000000112861)"><g clip-path="url(#694d388e83)"><g clip-path="url(#c4dc5ebfad)"><g clip-path="url(#7d9eb5136b)"><rect x="-330" fill="url(#fae2d4f293)" width="2160" height="2159.999904" y="-329.999985"/></g></g></g></g></g><g clip-path="url(#9ffdcf5079)"><path fill="#ffffff" d="M 1219.554688 438.660156 C 1211.941406 429.433594 1200.605469 424.085938 1188.625 424.085938 L 504.257812 424.085938 L 471.316406 313.433594 C 466.253906 296.417969 450.625 284.761719 432.875 284.761719 L 310.425781 284.761719 C 288.273438 284.761719 270.3125 302.722656 270.3125 324.878906 C 270.3125 347.03125 288.273438 364.984375 310.425781 364.984375 L 402.957031 364.984375 L 552.863281 868.515625 C 536.617188 898.3125 521.203125 940.964844 538.679688 976.691406 C 554.152344 1008.328125 589.117188 1024.371094 642.585938 1024.371094 C 643.554688 1024.371094 644.523438 1024.332031 645.492188 1024.234375 C 648.964844 1023.917969 994.527344 992.234375 1113.671875 998.984375 C 1131.042969 999.914062 1146.089844 986.617188 1147.078125 969.148438 C 1148.066406 951.691406 1134.703125 936.730469 1117.234375 935.765625 C 996.269531 928.9375 669.609375 958.429688 641.179688 961.035156 C 611.863281 960.84375 598.285156 954.394531 595.574219 948.875 C 592.554688 942.726562 594.703125 931.105469 599.789062 917.957031 C 600.640625 917.910156 601.480469 917.898438 602.351562 917.792969 L 1125.882812 854.46875 C 1143.183594 852.367188 1157.15625 839.332031 1160.449219 822.234375 L 1228.015625 471.804688 C 1230.273438 460.039062 1227.175781 447.886719 1219.554688 438.660156 Z M 928.964844 633.234375 L 764.308594 633.234375 L 764.308594 504.308594 L 928.964844 504.308594 Z M 577.847656 671.230469 L 726.3125 671.230469 L 726.3125 821.992188 L 626.320312 834.09375 Z M 764.308594 671.230469 L 928.964844 671.230469 L 928.964844 797.476562 L 764.308594 817.390625 Z M 1115.203125 633.234375 L 966.96875 633.234375 L 966.96875 504.308594 L 1140.058594 504.308594 Z M 726.3125 504.308594 L 726.3125 633.234375 L 566.527344 633.234375 L 528.144531 504.308594 Z M 966.96875 792.875 L 966.96875 671.230469 L 1107.871094 671.230469 L 1087.21875 778.320312 Z M 966.96875 792.875 " fill-opacity="1" fill-rule="nonzero"/></g><g clip-path="url(#0913a2b117)"><path fill="#ffffff" d="M 673.53125 1135.433594 C 673.53125 1136.746094 673.5 1138.054688 673.433594 1139.367188 C 673.371094 1140.675781 673.273438 1141.984375 673.144531 1143.289062 C 673.015625 1144.59375 672.855469 1145.894531 672.664062 1147.191406 C 672.472656 1148.488281 672.246094 1149.78125 671.992188 1151.066406 C 671.734375 1152.355469 671.449219 1153.632812 671.128906 1154.90625 C 670.8125 1156.179688 670.460938 1157.441406 670.082031 1158.699219 C 669.699219 1159.953125 669.289062 1161.199219 668.847656 1162.433594 C 668.40625 1163.667969 667.933594 1164.890625 667.429688 1166.101562 C 666.929688 1167.3125 666.398438 1168.511719 665.835938 1169.699219 C 665.277344 1170.882812 664.6875 1172.054688 664.066406 1173.210938 C 663.449219 1174.371094 662.804688 1175.511719 662.128906 1176.636719 C 661.453125 1177.761719 660.753906 1178.867188 660.023438 1179.957031 C 659.296875 1181.050781 658.542969 1182.121094 657.757812 1183.175781 C 656.976562 1184.226562 656.171875 1185.261719 655.339844 1186.277344 C 654.507812 1187.289062 653.652344 1188.28125 652.769531 1189.253906 C 651.890625 1190.226562 650.984375 1191.175781 650.058594 1192.101562 C 649.128906 1193.03125 648.179688 1193.933594 647.207031 1194.816406 C 646.238281 1195.695312 645.246094 1196.554688 644.230469 1197.386719 C 643.214844 1198.21875 642.183594 1199.023438 641.128906 1199.804688 C 640.074219 1200.585938 639.003906 1201.339844 637.914062 1202.070312 C 636.824219 1202.800781 635.714844 1203.5 634.589844 1204.175781 C 633.464844 1204.847656 632.324219 1205.496094 631.167969 1206.113281 C 630.011719 1206.730469 628.839844 1207.320312 627.652344 1207.882812 C 626.46875 1208.441406 625.269531 1208.972656 624.058594 1209.476562 C 622.84375 1209.976562 621.621094 1210.449219 620.386719 1210.890625 C 619.152344 1211.335938 617.90625 1211.746094 616.652344 1212.125 C 615.398438 1212.507812 614.132812 1212.855469 612.859375 1213.175781 C 611.589844 1213.492188 610.308594 1213.78125 609.023438 1214.039062 C 607.734375 1214.292969 606.445312 1214.515625 605.148438 1214.710938 C 603.847656 1214.902344 602.546875 1215.0625 601.242188 1215.191406 C 599.9375 1215.320312 598.628906 1215.417969 597.320312 1215.480469 C 596.007812 1215.546875 594.699219 1215.578125 593.386719 1215.578125 C 592.074219 1215.578125 590.765625 1215.546875 589.453125 1215.480469 C 588.144531 1215.417969 586.835938 1215.320312 585.53125 1215.191406 C 584.226562 1215.0625 582.925781 1214.902344 581.628906 1214.710938 C 580.332031 1214.515625 579.039062 1214.292969 577.75 1214.039062 C 576.464844 1213.78125 575.1875 1213.492188 573.914062 1213.175781 C 572.640625 1212.855469 571.378906 1212.507812 570.121094 1212.125 C 568.867188 1211.746094 567.621094 1211.335938 566.386719 1210.890625 C 565.152344 1210.449219 563.929688 1209.976562 562.71875 1209.476562 C 561.503906 1208.972656 560.308594 1208.441406 559.121094 1207.882812 C 557.933594 1207.320312 556.765625 1206.730469 555.609375 1206.113281 C 554.449219 1205.496094 553.308594 1204.847656 552.183594 1204.175781 C 551.058594 1203.5 549.953125 1202.800781 548.863281 1202.070312 C 547.769531 1201.34375 546.699219 1200.585938 545.644531 1199.804688 C 544.589844 1199.023438 543.558594 1198.21875 542.542969 1197.386719 C 541.53125 1196.554688 540.539062 1195.695312 539.566406 1194.816406 C 538.59375 1193.933594 537.644531 1193.03125 536.714844 1192.101562 C 535.789062 1191.175781 534.886719 1190.226562 534.003906 1189.253906 C 533.125 1188.28125 532.265625 1187.289062 531.433594 1186.277344 C 530.601562 1185.261719 529.796875 1184.226562 529.015625 1183.175781 C 528.234375 1182.121094 527.476562 1181.050781 526.75 1179.957031 C 526.019531 1178.867188 525.320312 1177.761719 524.644531 1176.636719 C 523.972656 1175.511719 523.324219 1174.371094 522.707031 1173.210938 C 522.085938 1172.054688 521.5 1170.882812 520.9375 1169.699219 C 520.375 1168.511719 519.84375 1167.3125 519.34375 1166.101562 C 518.839844 1164.890625 518.371094 1163.667969 517.925781 1162.433594 C 517.484375 1161.199219 517.074219 1159.953125 516.695312 1158.699219 C 516.3125 1157.441406 515.964844 1156.179688 515.644531 1154.90625 C 515.324219 1153.632812 515.039062 1152.355469 514.78125 1151.066406 C 514.527344 1149.78125 514.300781 1148.488281 514.109375 1147.191406 C 513.917969 1145.894531 513.757812 1144.59375 513.628906 1143.289062 C 513.5 1141.984375 513.402344 1140.675781 513.339844 1139.367188 C 513.273438 1138.054688 513.242188 1136.746094 513.242188 1135.433594 C 513.242188 1134.121094 513.273438 1132.808594 513.339844 1131.5 C 513.402344 1130.191406 513.5 1128.882812 513.628906 1127.578125 C 513.757812 1126.273438 513.917969 1124.96875 514.109375 1123.671875 C 514.300781 1122.375 514.527344 1121.082031 514.78125 1119.796875 C 515.039062 1118.511719 515.324219 1117.230469 515.644531 1115.960938 C 515.964844 1114.6875 516.3125 1113.421875 516.695312 1112.167969 C 517.074219 1110.914062 517.484375 1109.667969 517.925781 1108.433594 C 518.371094 1107.199219 518.839844 1105.976562 519.34375 1104.761719 C 519.84375 1103.550781 520.375 1102.351562 520.9375 1101.167969 C 521.5 1099.980469 522.085938 1098.808594 522.707031 1097.652344 C 523.324219 1096.496094 523.972656 1095.355469 524.644531 1094.230469 C 525.320312 1093.105469 526.019531 1091.996094 526.75 1090.90625 C 527.476562 1089.816406 528.234375 1088.746094 529.015625 1087.691406 C 529.796875 1086.636719 530.601562 1085.605469 531.433594 1084.589844 C 532.265625 1083.574219 533.125 1082.582031 534.003906 1081.609375 C 534.886719 1080.640625 535.789062 1079.691406 536.714844 1078.761719 C 537.644531 1077.835938 538.59375 1076.929688 539.566406 1076.050781 C 540.539062 1075.167969 541.53125 1074.3125 542.542969 1073.480469 C 543.558594 1072.648438 544.589844 1071.839844 545.644531 1071.058594 C 546.699219 1070.277344 547.769531 1069.523438 548.863281 1068.796875 C 549.953125 1068.066406 551.058594 1067.363281 552.183594 1066.691406 C 553.308594 1066.015625 554.449219 1065.371094 555.609375 1064.75 C 556.765625 1064.132812 557.933594 1063.542969 559.121094 1062.984375 C 560.308594 1062.421875 561.503906 1061.890625 562.71875 1061.390625 C 563.929688 1060.886719 565.152344 1060.414062 566.386719 1059.972656 C 567.621094 1059.53125 568.867188 1059.121094 570.121094 1058.738281 C 571.378906 1058.359375 572.640625 1058.007812 573.914062 1057.691406 C 575.1875 1057.371094 576.464844 1057.085938 577.75 1056.828125 C 579.039062 1056.574219 580.332031 1056.347656 581.628906 1056.15625 C 582.925781 1055.964844 584.226562 1055.804688 585.53125 1055.675781 C 586.835938 1055.546875 588.144531 1055.449219 589.453125 1055.386719 C 590.765625 1055.320312 592.074219 1055.289062 593.386719 1055.289062 C 594.699219 1055.289062 596.007812 1055.320312 597.320312 1055.386719 C 598.628906 1055.449219 599.9375 1055.546875 601.242188 1055.675781 C 602.546875 1055.804688 603.847656 1055.964844 605.148438 1056.15625 C 606.445312 1056.347656 607.734375 1056.574219 609.023438 1056.828125 C 610.308594 1057.085938 611.589844 1057.371094 612.859375 1057.691406 C 614.132812 1058.007812 615.398438 1058.359375 616.652344 1058.738281 C 617.90625 1059.121094 619.152344 1059.53125 620.386719 1059.972656 C 621.621094 1060.414062 622.84375 1060.886719 624.058594 1061.390625 C 625.269531 1061.890625 626.46875 1062.421875 627.652344 1062.984375 C 628.839844 1063.542969 630.011719 1064.132812 631.167969 1064.75 C 632.324219 1065.371094 633.464844 1066.015625 634.589844 1066.691406 C 635.714844 1067.363281 636.824219 1068.066406 637.914062 1068.796875 C 639.003906 1069.523438 640.074219 1070.277344 641.128906 1071.058594 C 642.183594 1071.839844 643.214844 1072.648438 644.230469 1073.480469 C 645.246094 1074.3125 646.238281 1075.167969 647.207031 1076.050781 C 648.179688 1076.929688 649.128906 1077.835938 650.058594 1078.761719 C 650.984375 1079.691406 651.890625 1080.640625 652.769531 1081.609375 C 653.652344 1082.582031 654.507812 1083.574219 655.339844 1084.589844 C 656.171875 1085.605469 656.976562 1086.636719 657.757812 1087.691406 C 658.542969 1088.746094 659.296875 1089.816406 660.023438 1090.90625 C 660.753906 1091.996094 661.453125 1093.105469 662.128906 1094.230469 C 662.804688 1095.355469 663.449219 1096.496094 664.066406 1097.652344 C 664.6875 1098.808594 665.277344 1099.980469 665.835938 1101.167969 C 666.398438 1102.351562 666.929688 1103.550781 667.429688 1104.761719 C 667.933594 1105.976562 668.40625 1107.199219 668.847656 1108.433594 C 669.289062 1109.667969 669.699219 1110.914062 670.082031 1112.167969 C 670.460938 1113.421875 670.8125 1114.6875 671.128906 1115.960938 C 671.449219 1117.230469 671.734375 1118.511719 671.992188 1119.796875 C 672.246094 1121.082031 672.472656 1122.375 672.664062 1123.671875 C 672.855469 1124.96875 673.015625 1126.273438 673.144531 1127.578125 C 673.273438 1128.882812 673.371094 1130.191406 673.433594 1131.5 C 673.5 1132.808594 673.53125 1134.121094 673.53125 1135.433594 Z M 673.53125 1135.433594 " fill-opacity="1" fill-rule="nonzero"/></g><g clip-path="url(#94e2b4a7d9)"><path fill="#ffffff" d="M 1129.511719 1135.433594 C 1129.511719 1136.746094 1129.480469 1138.054688 1129.417969 1139.367188 C 1129.351562 1140.675781 1129.257812 1141.984375 1129.128906 1143.289062 C 1129 1144.59375 1128.839844 1145.894531 1128.644531 1147.191406 C 1128.453125 1148.488281 1128.230469 1149.78125 1127.972656 1151.066406 C 1127.71875 1152.355469 1127.429688 1153.632812 1127.113281 1154.90625 C 1126.792969 1156.179688 1126.441406 1157.441406 1126.0625 1158.699219 C 1125.679688 1159.953125 1125.269531 1161.199219 1124.828125 1162.433594 C 1124.386719 1163.667969 1123.914062 1164.890625 1123.414062 1166.101562 C 1122.910156 1167.3125 1122.378906 1168.511719 1121.820312 1169.699219 C 1121.257812 1170.882812 1120.667969 1172.054688 1120.050781 1173.210938 C 1119.433594 1174.371094 1118.785156 1175.511719 1118.109375 1176.636719 C 1117.4375 1177.761719 1116.734375 1178.867188 1116.007812 1179.957031 C 1115.277344 1181.050781 1114.523438 1182.121094 1113.742188 1183.175781 C 1112.960938 1184.226562 1112.152344 1185.261719 1111.320312 1186.277344 C 1110.488281 1187.289062 1109.632812 1188.28125 1108.75 1189.253906 C 1107.871094 1190.226562 1106.96875 1191.175781 1106.039062 1192.101562 C 1105.113281 1193.03125 1104.164062 1193.933594 1103.191406 1194.816406 C 1102.21875 1195.695312 1101.226562 1196.554688 1100.210938 1197.386719 C 1099.199219 1198.21875 1098.164062 1199.023438 1097.109375 1199.804688 C 1096.058594 1200.585938 1094.984375 1201.339844 1093.894531 1202.070312 C 1092.804688 1202.800781 1091.695312 1203.5 1090.570312 1204.175781 C 1089.445312 1204.847656 1088.304688 1205.496094 1087.148438 1206.113281 C 1085.992188 1206.730469 1084.820312 1207.320312 1083.636719 1207.882812 C 1082.449219 1208.441406 1081.25 1208.972656 1080.039062 1209.476562 C 1078.828125 1209.976562 1077.605469 1210.449219 1076.367188 1210.890625 C 1075.132812 1211.335938 1073.890625 1211.746094 1072.632812 1212.125 C 1071.378906 1212.507812 1070.113281 1212.855469 1068.84375 1213.175781 C 1067.570312 1213.492188 1066.289062 1213.78125 1065.003906 1214.039062 C 1063.71875 1214.292969 1062.425781 1214.515625 1061.128906 1214.710938 C 1059.832031 1214.902344 1058.53125 1215.0625 1057.222656 1215.191406 C 1055.917969 1215.320312 1054.613281 1215.417969 1053.300781 1215.480469 C 1051.992188 1215.546875 1050.679688 1215.578125 1049.367188 1215.578125 C 1048.058594 1215.578125 1046.746094 1215.546875 1045.4375 1215.480469 C 1044.125 1215.417969 1042.820312 1215.320312 1041.511719 1215.191406 C 1040.207031 1215.0625 1038.90625 1214.902344 1037.609375 1214.710938 C 1036.3125 1214.515625 1035.019531 1214.292969 1033.734375 1214.039062 C 1032.445312 1213.78125 1031.167969 1213.492188 1029.894531 1213.175781 C 1028.625 1212.855469 1027.359375 1212.507812 1026.105469 1212.125 C 1024.847656 1211.746094 1023.605469 1211.335938 1022.367188 1210.890625 C 1021.132812 1210.449219 1019.910156 1209.976562 1018.699219 1209.476562 C 1017.488281 1208.972656 1016.289062 1208.441406 1015.101562 1207.882812 C 1013.917969 1207.320312 1012.746094 1206.730469 1011.589844 1206.113281 C 1010.433594 1205.496094 1009.292969 1204.847656 1008.167969 1204.175781 C 1007.042969 1203.5 1005.933594 1202.800781 1004.84375 1202.070312 C 1003.753906 1201.34375 1002.679688 1200.585938 1001.625 1199.804688 C 1000.574219 1199.023438 999.539062 1198.21875 998.527344 1197.386719 C 997.511719 1196.554688 996.519531 1195.695312 995.546875 1194.816406 C 994.574219 1193.933594 993.625 1193.03125 992.699219 1192.101562 C 991.769531 1191.175781 990.867188 1190.226562 989.984375 1189.253906 C 989.105469 1188.28125 988.25 1187.289062 987.417969 1186.277344 C 986.585938 1185.261719 985.777344 1184.226562 984.996094 1183.175781 C 984.214844 1182.121094 983.460938 1181.050781 982.730469 1179.957031 C 982.003906 1178.867188 981.300781 1177.761719 980.625 1176.636719 C 979.953125 1175.511719 979.304688 1174.371094 978.6875 1173.210938 C 978.070312 1172.054688 977.480469 1170.882812 976.917969 1169.699219 C 976.359375 1168.511719 975.828125 1167.3125 975.324219 1166.101562 C 974.824219 1164.890625 974.351562 1163.667969 973.910156 1162.433594 C 973.46875 1161.199219 973.054688 1159.953125 972.675781 1158.699219 C 972.292969 1157.441406 971.945312 1156.179688 971.625 1154.90625 C 971.308594 1153.632812 971.019531 1152.355469 970.765625 1151.066406 C 970.507812 1149.78125 970.285156 1148.488281 970.09375 1147.191406 C 969.898438 1145.894531 969.738281 1144.59375 969.609375 1143.289062 C 969.480469 1141.984375 969.386719 1140.675781 969.320312 1139.367188 C 969.257812 1138.054688 969.222656 1136.746094 969.222656 1135.433594 C 969.222656 1134.121094 969.257812 1132.808594 969.320312 1131.5 C 969.386719 1130.191406 969.480469 1128.882812 969.609375 1127.578125 C 969.738281 1126.273438 969.898438 1124.96875 970.09375 1123.671875 C 970.285156 1122.375 970.507812 1121.082031 970.765625 1119.796875 C 971.019531 1118.511719 971.308594 1117.230469 971.625 1115.960938 C 971.945312 1114.6875 972.292969 1113.421875 972.675781 1112.167969 C 973.054688 1110.914062 973.46875 1109.667969 973.910156 1108.433594 C 974.351562 1107.199219 974.824219 1105.976562 975.324219 1104.761719 C 975.828125 1103.550781 976.359375 1102.351562 976.917969 1101.167969 C 977.480469 1099.980469 978.070312 1098.808594 978.6875 1097.652344 C 979.304688 1096.496094 979.953125 1095.355469 980.625 1094.230469 C 981.300781 1093.105469 982.003906 1091.996094 982.730469 1090.90625 C 983.460938 1089.816406 984.214844 1088.746094 984.996094 1087.691406 C 985.777344 1086.636719 986.585938 1085.605469 987.417969 1084.589844 C 988.25 1083.574219 989.105469 1082.582031 989.984375 1081.609375 C 990.867188 1080.640625 991.769531 1079.691406 992.699219 1078.761719 C 993.625 1077.835938 994.574219 1076.929688 995.546875 1076.050781 C 996.519531 1075.167969 997.511719 1074.3125 998.527344 1073.480469 C 999.539062 1072.648438 1000.574219 1071.839844 1001.625 1071.058594 C 1002.679688 1070.277344 1003.753906 1069.523438 1004.84375 1068.796875 C 1005.933594 1068.066406 1007.042969 1067.363281 1008.167969 1066.691406 C 1009.292969 1066.015625 1010.433594 1065.371094 1011.589844 1064.75 C 1012.746094 1064.132812 1013.917969 1063.542969 1015.101562 1062.984375 C 1016.289062 1062.421875 1017.488281 1061.890625 1018.699219 1061.390625 C 1019.910156 1060.886719 1021.132812 1060.414062 1022.367188 1059.972656 C 1023.605469 1059.53125 1024.847656 1059.121094 1026.105469 1058.738281 C 1027.359375 1058.359375 1028.621094 1058.007812 1029.894531 1057.691406 C 1031.167969 1057.371094 1032.445312 1057.085938 1033.734375 1056.828125 C 1035.019531 1056.574219 1036.3125 1056.347656 1037.609375 1056.15625 C 1038.90625 1055.964844 1040.207031 1055.804688 1041.511719 1055.675781 C 1042.820312 1055.546875 1044.125 1055.449219 1045.4375 1055.386719 C 1046.746094 1055.320312 1048.058594 1055.289062 1049.367188 1055.289062 C 1050.679688 1055.289062 1051.992188 1055.320312 1053.300781 1055.386719 C 1054.613281 1055.449219 1055.917969 1055.546875 1057.222656 1055.675781 C 1058.53125 1055.804688 1059.832031 1055.964844 1061.128906 1056.15625 C 1062.425781 1056.347656 1063.71875 1056.574219 1065.003906 1056.828125 C 1066.289062 1057.085938 1067.570312 1057.371094 1068.84375 1057.691406 C 1070.113281 1058.007812 1071.378906 1058.359375 1072.632812 1058.738281 C 1073.886719 1059.121094 1075.132812 1059.53125 1076.367188 1059.972656 C 1077.605469 1060.414062 1078.828125 1060.886719 1080.039062 1061.390625 C 1081.25 1061.890625 1082.449219 1062.421875 1083.636719 1062.984375 C 1084.820312 1063.542969 1085.992188 1064.132812 1087.148438 1064.75 C 1088.304688 1065.371094 1089.445312 1066.015625 1090.570312 1066.691406 C 1091.695312 1067.363281 1092.804688 1068.066406 1093.894531 1068.796875 C 1094.984375 1069.523438 1096.058594 1070.277344 1097.109375 1071.058594 C 1098.164062 1071.839844 1099.199219 1072.648438 1100.210938 1073.480469 C 1101.226562 1074.3125 1102.21875 1075.167969 1103.191406 1076.050781 C 1104.164062 1076.929688 1105.113281 1077.835938 1106.039062 1078.761719 C 1106.96875 1079.691406 1107.871094 1080.640625 1108.753906 1081.609375 C 1109.632812 1082.582031 1110.488281 1083.574219 1111.320312 1084.589844 C 1112.152344 1085.605469 1112.960938 1086.636719 1113.742188 1087.691406 C 1114.523438 1088.746094 1115.277344 1089.816406 1116.007812 1090.90625 C 1116.734375 1091.996094 1117.4375 1093.105469 1118.109375 1094.230469 C 1118.785156 1095.355469 1119.433594 1096.496094 1120.050781 1097.652344 C 1120.667969 1098.808594 1121.257812 1099.980469 1121.820312 1101.167969 C 1122.378906 1102.351562 1122.910156 1103.550781 1123.414062 1104.761719 C 1123.914062 1105.976562 1124.386719 1107.199219 1124.828125 1108.433594 C 1125.269531 1109.667969 1125.679688 1110.914062 1126.0625 1112.167969 C 1126.441406 1113.421875 1126.792969 1114.6875 1127.113281 1115.960938 C 1127.429688 1117.230469 1127.71875 1118.511719 1127.972656 1119.796875 C 1128.230469 1121.082031 1128.453125 1122.375 1128.644531 1123.671875 C 1128.839844 1124.96875 1129 1126.273438 1129.128906 1127.578125 C 1129.257812 1128.882812 1129.351562 1130.191406 1129.417969 1131.5 C 1129.480469 1132.808594 1129.511719 1134.121094 1129.511719 1135.433594 Z M 1129.511719 1135.433594 " fill-opacity="1" fill-rule="nonzero"/></g></svg>