<svg xmlns="http://www.w3.org/2000/svg" xmlns:xlink="http://www.w3.org/1999/xlink" width="900" zoomAndPan="magnify" viewBox="0 0 675 149.999998" height="200" preserveAspectRatio="xMidYMid meet" version="1.0"><defs><g/><clipPath id="90e38727d4"><path d="M 0.800781 0 L 150.800781 0 L 150.800781 150 L 0.800781 150 Z M 0.800781 0 " clip-rule="nonzero"/></clipPath><clipPath id="ec3dcff95d"><path d="M 150.800781 75 C 150.800781 116.421875 117.222656 150 75.800781 150 C 34.378906 150 0.800781 116.421875 0.800781 75 C 0.800781 33.578125 34.378906 0 75.800781 0 C 117.222656 0 150.800781 33.578125 150.800781 75 Z M 150.800781 75 " clip-rule="nonzero"/></clipPath><clipPath id="50674d32de"><path d="M 0.800781 0 L 150.800781 0 L 150.800781 150 L 0.800781 150 Z M 0.800781 0 " clip-rule="nonzero"/></clipPath><clipPath id="9f7244d2be"><path d="M 150.800781 75 C 150.800781 116.421875 117.222656 150 75.800781 150 C 34.378906 150 0.800781 116.421875 0.800781 75 C 0.800781 33.578125 34.378906 0 75.800781 0 C 117.222656 0 150.800781 33.578125 150.800781 75 Z M 150.800781 75 " clip-rule="nonzero"/></clipPath><radialGradient gradientTransform="matrix(1, 0, 0, 1, 0.800109, 0.000002)" gradientUnits="userSpaceOnUse" r="212.131158" cx="0" id="bb8948d975" cy="0" fx="0" fy="0"><stop stop-opacity="1" stop-color="rgb(7.839966%, 72.280884%, 59.97467%)" offset="0"/><stop stop-opacity="1" stop-color="rgb(7.839966%, 72.496033%, 59.931946%)" offset="0.015625"/><stop stop-opacity="1" stop-color="rgb(7.839966%, 72.679138%, 59.895325%)" offset="0.0273438"/><stop stop-opacity="1" stop-color="rgb(7.839966%, 72.86377%, 59.858704%)" offset="0.0390625"/><stop stop-opacity="1" stop-color="rgb(7.839966%, 73.046875%, 59.820557%)" offset="0.0507812"/><stop stop-opacity="1" stop-color="rgb(7.839966%, 73.231506%, 59.783936%)" offset="0.0625"/><stop stop-opacity="1" stop-color="rgb(7.839966%, 73.414612%, 59.747314%)" offset="0.0742188"/><stop stop-opacity="1" stop-color="rgb(7.839966%, 73.597717%, 59.710693%)" offset="0.0859375"/><stop stop-opacity="1" stop-color="rgb(7.839966%, 73.782349%, 59.674072%)" offset="0.0976562"/><stop stop-opacity="1" stop-color="rgb(7.839966%, 73.965454%, 59.637451%)" offset="0.109375"/><stop stop-opacity="1" stop-color="rgb(7.839966%, 74.150085%, 59.60083%)" offset="0.121094"/><stop stop-opacity="1" stop-color="rgb(7.839966%, 74.424744%, 59.545898%)" offset="0.132812"/><stop stop-opacity="1" stop-color="rgb(7.839966%, 74.79248%, 59.47113%)" offset="0.15625"/><stop stop-opacity="1" stop-color="rgb(7.839966%, 75.160217%, 59.397888%)" offset="0.179688"/><stop stop-opacity="1" stop-color="rgb(7.839966%, 75.527954%, 59.324646%)" offset="0.203125"/><stop stop-opacity="1" stop-color="rgb(7.839966%, 75.894165%, 59.251404%)" offset="0.226562"/><stop stop-opacity="1" stop-color="rgb(7.839966%, 76.261902%, 59.176636%)" offset="0.25"/><stop stop-opacity="1" stop-color="rgb(7.839966%, 76.599121%, 59.109497%)" offset="0.273438"/><stop stop-opacity="1" stop-color="rgb(7.839966%, 76.905823%, 59.048462%)" offset="0.292969"/><stop stop-opacity="1" stop-color="rgb(7.839966%, 77.212524%, 58.987427%)" offset="0.3125"/><stop stop-opacity="1" stop-color="rgb(7.839966%, 77.5177%, 58.926392%)" offset="0.332031"/><stop stop-opacity="1" stop-color="rgb(7.839966%, 77.824402%, 58.863831%)" offset="0.351562"/><stop stop-opacity="1" stop-color="rgb(7.839966%, 78.131104%, 58.802795%)" offset="0.371094"/><stop stop-opacity="1" stop-color="rgb(7.839966%, 78.405762%, 58.747864%)" offset="0.390625"/><stop stop-opacity="1" stop-color="rgb(7.839966%, 78.651428%, 58.699036%)" offset="0.40625"/><stop stop-opacity="1" stop-color="rgb(7.839966%, 78.895569%, 58.650208%)" offset="0.421875"/><stop stop-opacity="1" stop-color="rgb(7.839966%, 79.202271%, 58.589172%)" offset="0.4375"/><stop stop-opacity="1" stop-color="rgb(7.839966%, 79.508972%, 58.526611%)" offset="0.460938"/><stop stop-opacity="1" stop-color="rgb(7.839966%, 79.512024%, 58.633423%)" offset="0.476562"/><stop stop-opacity="1" stop-color="rgb(7.839966%, 79.240417%, 58.850098%)" offset="0.507812"/><stop stop-opacity="1" stop-color="rgb(7.839966%, 78.936768%, 59.01947%)" offset="0.511719"/><stop stop-opacity="1" stop-color="rgb(7.839966%, 78.634644%, 59.187317%)" offset="0.515625"/><stop stop-opacity="1" stop-color="rgb(7.839966%, 78.330994%, 59.355164%)" offset="0.519531"/><stop stop-opacity="1" stop-color="rgb(7.839966%, 78.027344%, 59.524536%)" offset="0.523438"/><stop stop-opacity="1" stop-color="rgb(7.839966%, 77.723694%, 59.692383%)" offset="0.527344"/><stop stop-opacity="1" stop-color="rgb(7.839966%, 77.420044%, 59.861755%)" offset="0.53125"/><stop stop-opacity="1" stop-color="rgb(7.839966%, 77.11792%, 60.029602%)" offset="0.535156"/><stop stop-opacity="1" stop-color="rgb(7.839966%, 76.81427%, 60.198975%)" offset="0.539062"/><stop stop-opacity="1" stop-color="rgb(7.839966%, 76.51062%, 60.366821%)" offset="0.542969"/><stop stop-opacity="1" stop-color="rgb(7.839966%, 76.20697%, 60.534668%)" offset="0.546875"/><stop stop-opacity="1" stop-color="rgb(7.839966%, 75.904846%, 60.704041%)" offset="0.550781"/><stop stop-opacity="1" stop-color="rgb(7.839966%, 75.601196%, 60.871887%)" offset="0.554688"/><stop stop-opacity="1" stop-color="rgb(7.839966%, 75.297546%, 61.04126%)" offset="0.558594"/><stop stop-opacity="1" stop-color="rgb(7.839966%, 74.993896%, 61.209106%)" offset="0.5625"/><stop stop-opacity="1" stop-color="rgb(7.839966%, 74.691772%, 61.378479%)" offset="0.566406"/><stop stop-opacity="1" stop-color="rgb(7.839966%, 74.388123%, 61.546326%)" offset="0.570312"/><stop stop-opacity="1" stop-color="rgb(7.839966%, 74.084473%, 61.715698%)" offset="0.574219"/><stop stop-opacity="1" stop-color="rgb(7.839966%, 73.780823%, 61.883545%)" offset="0.578125"/><stop stop-opacity="1" stop-color="rgb(7.839966%, 73.478699%, 62.051392%)" offset="0.582031"/><stop stop-opacity="1" stop-color="rgb(7.839966%, 73.175049%, 62.220764%)" offset="0.585938"/><stop stop-opacity="1" stop-color="rgb(7.839966%, 72.871399%, 62.388611%)" offset="0.589844"/><stop stop-opacity="1" stop-color="rgb(7.839966%, 72.567749%, 62.557983%)" offset="0.59375"/><stop stop-opacity="1" stop-color="rgb(7.839966%, 72.265625%, 62.72583%)" offset="0.597656"/><stop stop-opacity="1" stop-color="rgb(7.839966%, 71.961975%, 62.895203%)" offset="0.601562"/><stop stop-opacity="1" stop-color="rgb(7.839966%, 71.658325%, 63.063049%)" offset="0.605469"/><stop stop-opacity="1" stop-color="rgb(7.839966%, 71.354675%, 63.230896%)" offset="0.609375"/><stop stop-opacity="1" stop-color="rgb(7.839966%, 71.052551%, 63.400269%)" offset="0.613281"/><stop stop-opacity="1" stop-color="rgb(7.839966%, 70.748901%, 63.568115%)" offset="0.617188"/><stop stop-opacity="1" stop-color="rgb(7.839966%, 70.445251%, 63.737488%)" offset="0.621094"/><stop stop-opacity="1" stop-color="rgb(7.839966%, 70.141602%, 63.905334%)" offset="0.625"/><stop stop-opacity="1" stop-color="rgb(7.839966%, 69.839478%, 64.074707%)" offset="0.628906"/><stop stop-opacity="1" stop-color="rgb(7.839966%, 69.535828%, 64.242554%)" offset="0.632812"/><stop stop-opacity="1" stop-color="rgb(7.839966%, 69.232178%, 64.411926%)" offset="0.636719"/><stop stop-opacity="1" stop-color="rgb(7.839966%, 68.928528%, 64.579773%)" offset="0.640625"/><stop stop-opacity="1" stop-color="rgb(7.839966%, 68.624878%, 64.74762%)" offset="0.644531"/><stop stop-opacity="1" stop-color="rgb(7.839966%, 68.322754%, 64.916992%)" offset="0.648438"/><stop stop-opacity="1" stop-color="rgb(7.839966%, 68.019104%, 65.084839%)" offset="0.652344"/><stop stop-opacity="1" stop-color="rgb(7.839966%, 67.715454%, 65.254211%)" offset="0.65625"/><stop stop-opacity="1" stop-color="rgb(7.839966%, 67.411804%, 65.422058%)" offset="0.660156"/><stop stop-opacity="1" stop-color="rgb(7.839966%, 67.10968%, 65.591431%)" offset="0.664062"/><stop stop-opacity="1" stop-color="rgb(7.839966%, 66.80603%, 65.759277%)" offset="0.667969"/><stop stop-opacity="1" stop-color="rgb(7.839966%, 66.50238%, 65.927124%)" offset="0.671875"/><stop stop-opacity="1" stop-color="rgb(7.839966%, 66.19873%, 66.096497%)" offset="0.675781"/><stop stop-opacity="1" stop-color="rgb(7.839966%, 65.896606%, 66.264343%)" offset="0.679688"/><stop stop-opacity="1" stop-color="rgb(7.839966%, 65.592957%, 66.433716%)" offset="0.683594"/><stop stop-opacity="1" stop-color="rgb(7.839966%, 65.289307%, 66.601562%)" offset="0.6875"/><stop stop-opacity="1" stop-color="rgb(7.839966%, 64.985657%, 66.770935%)" offset="0.691406"/><stop stop-opacity="1" stop-color="rgb(7.839966%, 64.683533%, 66.938782%)" offset="0.695312"/><stop stop-opacity="1" stop-color="rgb(7.839966%, 64.379883%, 67.108154%)" offset="0.699219"/><stop stop-opacity="1" stop-color="rgb(7.839966%, 64.076233%, 67.276001%)" offset="0.703125"/><stop stop-opacity="1" stop-color="rgb(7.839966%, 63.772583%, 67.443848%)" offset="0.707031"/><stop stop-opacity="1" stop-color="rgb(7.839966%, 63.470459%, 67.61322%)" offset="0.710938"/><stop stop-opacity="1" stop-color="rgb(7.839966%, 63.166809%, 67.781067%)" offset="0.714844"/><stop stop-opacity="1" stop-color="rgb(7.839966%, 62.863159%, 67.950439%)" offset="0.71875"/><stop stop-opacity="1" stop-color="rgb(7.839966%, 62.559509%, 68.118286%)" offset="0.722656"/><stop stop-opacity="1" stop-color="rgb(7.839966%, 62.257385%, 68.287659%)" offset="0.726562"/><stop stop-opacity="1" stop-color="rgb(7.839966%, 61.953735%, 68.455505%)" offset="0.730469"/><stop stop-opacity="1" stop-color="rgb(7.839966%, 61.650085%, 68.623352%)" offset="0.734375"/><stop stop-opacity="1" stop-color="rgb(7.839966%, 61.346436%, 68.792725%)" offset="0.738281"/><stop stop-opacity="1" stop-color="rgb(7.839966%, 61.044312%, 68.960571%)" offset="0.742188"/><stop stop-opacity="1" stop-color="rgb(7.839966%, 60.740662%, 69.129944%)" offset="0.746094"/><stop stop-opacity="1" stop-color="rgb(7.839966%, 60.437012%, 69.297791%)" offset="0.75"/><stop stop-opacity="1" stop-color="rgb(7.839966%, 60.133362%, 69.467163%)" offset="0.753906"/><stop stop-opacity="1" stop-color="rgb(7.839966%, 59.829712%, 69.63501%)" offset="0.757812"/><stop stop-opacity="1" stop-color="rgb(7.839966%, 59.527588%, 69.804382%)" offset="0.761719"/><stop stop-opacity="1" stop-color="rgb(7.839966%, 59.223938%, 69.972229%)" offset="0.765625"/><stop stop-opacity="1" stop-color="rgb(7.839966%, 58.920288%, 70.140076%)" offset="0.769531"/><stop stop-opacity="1" stop-color="rgb(7.839966%, 58.616638%, 70.309448%)" offset="0.773438"/><stop stop-opacity="1" stop-color="rgb(7.839966%, 58.314514%, 70.477295%)" offset="0.777344"/><stop stop-opacity="1" stop-color="rgb(7.839966%, 58.010864%, 70.646667%)" offset="0.78125"/><stop stop-opacity="1" stop-color="rgb(7.839966%, 57.707214%, 70.814514%)" offset="0.785156"/><stop stop-opacity="1" stop-color="rgb(7.839966%, 57.403564%, 70.983887%)" offset="0.789062"/><stop stop-opacity="1" stop-color="rgb(7.839966%, 57.10144%, 71.151733%)" offset="0.792969"/><stop stop-opacity="1" stop-color="rgb(7.839966%, 56.797791%, 71.321106%)" offset="0.796875"/><stop stop-opacity="1" stop-color="rgb(7.839966%, 56.494141%, 71.488953%)" offset="0.800781"/><stop stop-opacity="1" stop-color="rgb(7.839966%, 56.190491%, 71.656799%)" offset="0.804688"/><stop stop-opacity="1" stop-color="rgb(7.839966%, 55.888367%, 71.826172%)" offset="0.808594"/><stop stop-opacity="1" stop-color="rgb(7.839966%, 55.584717%, 71.994019%)" offset="0.8125"/><stop stop-opacity="1" stop-color="rgb(7.839966%, 55.281067%, 72.163391%)" offset="0.816406"/><stop stop-opacity="1" stop-color="rgb(7.839966%, 54.977417%, 72.331238%)" offset="0.820312"/><stop stop-opacity="1" stop-color="rgb(7.839966%, 54.675293%, 72.50061%)" offset="0.824219"/><stop stop-opacity="1" stop-color="rgb(7.839966%, 54.371643%, 72.668457%)" offset="0.828125"/><stop stop-opacity="1" stop-color="rgb(7.839966%, 54.067993%, 72.836304%)" offset="0.832031"/><stop stop-opacity="1" stop-color="rgb(7.839966%, 53.764343%, 73.005676%)" offset="0.835938"/><stop stop-opacity="1" stop-color="rgb(7.839966%, 53.462219%, 73.173523%)" offset="0.839844"/><stop stop-opacity="1" stop-color="rgb(7.839966%, 53.158569%, 73.342896%)" offset="0.84375"/><stop stop-opacity="1" stop-color="rgb(7.839966%, 52.854919%, 73.510742%)" offset="0.847656"/><stop stop-opacity="1" stop-color="rgb(7.839966%, 52.55127%, 73.680115%)" offset="0.851562"/><stop stop-opacity="1" stop-color="rgb(7.839966%, 52.249146%, 73.847961%)" offset="0.855469"/><stop stop-opacity="1" stop-color="rgb(7.839966%, 51.945496%, 74.017334%)" offset="0.859375"/><stop stop-opacity="1" stop-color="rgb(7.839966%, 51.641846%, 74.185181%)" offset="0.863281"/><stop stop-opacity="1" stop-color="rgb(7.839966%, 51.338196%, 74.353027%)" offset="0.867188"/><stop stop-opacity="1" stop-color="rgb(7.839966%, 51.034546%, 74.5224%)" offset="0.871094"/><stop stop-opacity="1" stop-color="rgb(7.839966%, 50.732422%, 74.690247%)" offset="0.875"/><stop stop-opacity="1" stop-color="rgb(7.839966%, 50.428772%, 74.859619%)" offset="0.878906"/><stop stop-opacity="1" stop-color="rgb(7.839966%, 50.125122%, 75.027466%)" offset="0.882812"/><stop stop-opacity="1" stop-color="rgb(7.839966%, 49.821472%, 75.196838%)" offset="0.886719"/><stop stop-opacity="1" stop-color="rgb(7.839966%, 49.519348%, 75.364685%)" offset="0.890625"/><stop stop-opacity="1" stop-color="rgb(7.839966%, 49.215698%, 75.532532%)" offset="0.894531"/><stop stop-opacity="1" stop-color="rgb(7.839966%, 48.912048%, 75.701904%)" offset="0.898438"/><stop stop-opacity="1" stop-color="rgb(7.839966%, 48.608398%, 75.869751%)" offset="0.902344"/><stop stop-opacity="1" stop-color="rgb(7.839966%, 48.306274%, 76.039124%)" offset="0.90625"/><stop stop-opacity="1" stop-color="rgb(7.839966%, 48.002625%, 76.20697%)" offset="0.910156"/><stop stop-opacity="1" stop-color="rgb(7.839966%, 47.698975%, 76.376343%)" offset="0.914062"/><stop stop-opacity="1" stop-color="rgb(7.839966%, 47.395325%, 76.544189%)" offset="0.917969"/><stop stop-opacity="1" stop-color="rgb(7.839966%, 47.093201%, 76.713562%)" offset="0.921875"/><stop stop-opacity="1" stop-color="rgb(7.839966%, 46.789551%, 76.881409%)" offset="0.925781"/><stop stop-opacity="1" stop-color="rgb(7.839966%, 46.485901%, 77.049255%)" offset="0.929688"/><stop stop-opacity="1" stop-color="rgb(7.839966%, 46.182251%, 77.218628%)" offset="0.933594"/><stop stop-opacity="1" stop-color="rgb(7.839966%, 45.880127%, 77.386475%)" offset="0.9375"/><stop stop-opacity="1" stop-color="rgb(7.839966%, 45.576477%, 77.555847%)" offset="0.941406"/><stop stop-opacity="1" stop-color="rgb(7.839966%, 45.272827%, 77.723694%)" offset="0.945312"/><stop stop-opacity="1" stop-color="rgb(7.839966%, 44.969177%, 77.893066%)" offset="0.949219"/><stop stop-opacity="1" stop-color="rgb(7.839966%, 44.667053%, 78.060913%)" offset="0.953125"/><stop stop-opacity="1" stop-color="rgb(7.839966%, 44.363403%, 78.22876%)" offset="0.957031"/><stop stop-opacity="1" stop-color="rgb(7.839966%, 44.059753%, 78.398132%)" offset="0.960938"/><stop stop-opacity="1" stop-color="rgb(7.839966%, 43.756104%, 78.565979%)" offset="0.964844"/><stop stop-opacity="1" stop-color="rgb(7.839966%, 43.453979%, 78.735352%)" offset="0.96875"/><stop stop-opacity="1" stop-color="rgb(7.839966%, 43.15033%, 78.903198%)" offset="0.972656"/><stop stop-opacity="1" stop-color="rgb(7.839966%, 42.84668%, 79.072571%)" offset="0.976562"/><stop stop-opacity="1" stop-color="rgb(7.839966%, 42.54303%, 79.240417%)" offset="0.980469"/><stop stop-opacity="1" stop-color="rgb(7.839966%, 42.240906%, 79.40979%)" offset="0.984375"/><stop stop-opacity="1" stop-color="rgb(7.839966%, 41.937256%, 79.577637%)" offset="0.988281"/><stop stop-opacity="1" stop-color="rgb(7.839966%, 41.633606%, 79.745483%)" offset="0.992188"/><stop stop-opacity="1" stop-color="rgb(7.839966%, 41.329956%, 79.914856%)" offset="0.996094"/><stop stop-opacity="1" stop-color="rgb(7.839966%, 41.178894%, 79.998779%)" offset="1"/></radialGradient><clipPath id="76062627f6"><rect x="0" width="151" y="0" height="150"/></clipPath><clipPath id="9eb57dfc23"><path d="M 175 33 L 616.800781 33 L 616.800781 116 L 175 116 Z M 175 33 " clip-rule="nonzero"/></clipPath><clipPath id="b0b514670e"><rect x="0" width="442" y="0" height="83"/></clipPath><clipPath id="7d27e9739c"><rect x="0" width="617" y="0" height="150"/></clipPath><clipPath id="c309cee795"><path d="M 53.542969 33.148438 L 139.792969 33.148438 L 139.792969 100 L 53.542969 100 Z M 53.542969 33.148438 " clip-rule="nonzero"/></clipPath></defs><g transform="matrix(1, 0, 0, 1, 24, -0.000000000000007527)"><g clip-path="url(#7d27e9739c)"><g clip-path="url(#90e38727d4)"><g clip-path="url(#ec3dcff95d)"><g transform="matrix(1, 0, 0, 1, 0.000000000000003553, -0.000000000000007527)"><g clip-path="url(#76062627f6)"><g clip-path="url(#50674d32de)"><g clip-path="url(#9f7244d2be)"><path fill="url(#bb8948d975)" d="M 0.800781 0 L 0.800781 150 L 150.800781 150 L 150.800781 0 Z M 0.800781 0 " fill-rule="nonzero"/></g></g></g></g></g></g><g clip-path="url(#9eb57dfc23)"><g transform="matrix(1, 0, 0, 1, 175, 33)"><g clip-path="url(#b0b514670e)"><g fill="#545454" fill-opacity="1"><g transform="translate(0.836937, 60.75)"><g><path d="M 9.296875 0 C 8.578125 0 8.015625 -0.1875 7.609375 -0.5625 C 7.210938 -0.945312 7.015625 -1.476562 7.015625 -2.15625 C 7.015625 -2.84375 7.210938 -3.351562 7.609375 -3.6875 C 8.015625 -4.03125 8.578125 -4.203125 9.296875 -4.203125 L 17.09375 -4.203125 L 17.09375 -38.21875 L 19.6875 -38.21875 L 10.984375 -32.453125 C 10.460938 -32.179688 9.96875 -32.0625 9.5 -32.09375 C 9.039062 -32.132812 8.660156 -32.304688 8.359375 -32.609375 C 8.066406 -32.910156 7.859375 -33.269531 7.734375 -33.6875 C 7.617188 -34.101562 7.640625 -34.539062 7.796875 -35 C 7.960938 -35.46875 8.300781 -35.863281 8.8125 -36.1875 L 17.09375 -41.640625 C 17.613281 -41.960938 18.113281 -42.222656 18.59375 -42.421875 C 19.070312 -42.617188 19.554688 -42.71875 20.046875 -42.71875 C 20.597656 -42.71875 21.0625 -42.546875 21.4375 -42.203125 C 21.820312 -41.867188 22.015625 -41.34375 22.015625 -40.625 L 22.015625 -4.203125 L 29.21875 -4.203125 C 29.9375 -4.203125 30.492188 -4.03125 30.890625 -3.6875 C 31.296875 -3.351562 31.5 -2.84375 31.5 -2.15625 C 31.5 -1.4375 31.296875 -0.894531 30.890625 -0.53125 C 30.492188 -0.175781 29.9375 0 29.21875 0 Z M 9.296875 0 "/></g></g></g><g fill="#545454" fill-opacity="1"><g transform="translate(36.836901, 60.75)"><g><path d="M 23.515625 0.546875 C 19.359375 0.546875 15.800781 -0.332031 12.84375 -2.09375 C 9.882812 -3.851562 7.613281 -6.351562 6.03125 -9.59375 C 4.445312 -12.832031 3.65625 -16.695312 3.65625 -21.1875 C 3.65625 -24.539062 4.101562 -27.546875 5 -30.203125 C 5.90625 -32.867188 7.207031 -35.128906 8.90625 -36.984375 C 10.601562 -38.847656 12.691406 -40.289062 15.171875 -41.3125 C 17.660156 -42.332031 20.441406 -42.84375 23.515625 -42.84375 C 25.992188 -42.84375 28.351562 -42.488281 30.59375 -41.78125 C 32.832031 -41.082031 34.773438 -40.054688 36.421875 -38.703125 C 36.941406 -38.296875 37.289062 -37.84375 37.46875 -37.34375 C 37.644531 -36.84375 37.660156 -36.363281 37.515625 -35.90625 C 37.378906 -35.445312 37.140625 -35.066406 36.796875 -34.765625 C 36.460938 -34.460938 36.054688 -34.3125 35.578125 -34.3125 C 35.097656 -34.3125 34.554688 -34.515625 33.953125 -34.921875 C 32.515625 -36.078125 30.9375 -36.9375 29.21875 -37.5 C 27.5 -38.0625 25.640625 -38.34375 23.640625 -38.34375 C 20.484375 -38.34375 17.800781 -37.671875 15.59375 -36.328125 C 13.394531 -34.984375 11.734375 -33.03125 10.609375 -30.46875 C 9.492188 -27.914062 8.9375 -24.820312 8.9375 -21.1875 C 8.9375 -17.539062 9.492188 -14.425781 10.609375 -11.84375 C 11.734375 -9.269531 13.394531 -7.3125 15.59375 -5.96875 C 17.800781 -4.625 20.484375 -3.953125 23.640625 -3.953125 C 25.597656 -3.953125 27.457031 -4.242188 29.21875 -4.828125 C 30.976562 -5.410156 32.597656 -6.28125 34.078125 -7.4375 C 34.679688 -7.84375 35.222656 -8.035156 35.703125 -8.015625 C 36.179688 -7.992188 36.578125 -7.84375 36.890625 -7.5625 C 37.210938 -7.28125 37.441406 -6.914062 37.578125 -6.46875 C 37.722656 -6.03125 37.722656 -5.570312 37.578125 -5.09375 C 37.441406 -4.613281 37.132812 -4.195312 36.65625 -3.84375 C 34.976562 -2.40625 33.007812 -1.3125 30.75 -0.5625 C 28.488281 0.175781 26.078125 0.546875 23.515625 0.546875 Z M 23.515625 0.546875 "/></g></g></g><g fill="#545454" fill-opacity="1"><g transform="translate(77.216862, 60.75)"><g><path d="M 13.4375 0.546875 C 10.5625 0.546875 8.363281 -0.332031 6.84375 -2.09375 C 5.320312 -3.851562 4.5625 -6.375 4.5625 -9.65625 L 4.5625 -40.265625 C 4.5625 -41.054688 4.757812 -41.660156 5.15625 -42.078125 C 5.5625 -42.503906 6.160156 -42.71875 6.953125 -42.71875 C 7.710938 -42.71875 8.3125 -42.503906 8.75 -42.078125 C 9.195312 -41.660156 9.421875 -41.054688 9.421875 -40.265625 L 9.421875 -10.015625 C 9.421875 -7.859375 9.847656 -6.25 10.703125 -5.1875 C 11.566406 -4.125 12.835938 -3.59375 14.515625 -3.59375 C 14.878906 -3.59375 15.203125 -3.613281 15.484375 -3.65625 C 15.765625 -3.695312 16.039062 -3.71875 16.3125 -3.71875 C 16.757812 -3.757812 17.070312 -3.660156 17.25 -3.421875 C 17.425781 -3.179688 17.515625 -2.703125 17.515625 -1.984375 C 17.515625 -1.265625 17.351562 -0.722656 17.03125 -0.359375 C 16.71875 0.00390625 16.203125 0.242188 15.484375 0.359375 C 15.160156 0.398438 14.816406 0.441406 14.453125 0.484375 C 14.097656 0.523438 13.757812 0.546875 13.4375 0.546875 Z M 13.4375 0.546875 "/></g></g></g><g fill="#545454" fill-opacity="1"><g transform="translate(94.976843, 60.75)"><g><path d="M 6.953125 0.296875 C 6.160156 0.296875 5.5625 0.0664062 5.15625 -0.390625 C 4.757812 -0.847656 4.5625 -1.5 4.5625 -2.34375 L 4.5625 -26.875 C 4.5625 -27.71875 4.757812 -28.359375 5.15625 -28.796875 C 5.5625 -29.234375 6.160156 -29.453125 6.953125 -29.453125 C 7.710938 -29.453125 8.3125 -29.234375 8.75 -28.796875 C 9.195312 -28.359375 9.421875 -27.71875 9.421875 -26.875 L 9.421875 -2.34375 C 9.421875 -1.5 9.207031 -0.847656 8.78125 -0.390625 C 8.363281 0.0664062 7.753906 0.296875 6.953125 0.296875 Z M 6.953125 -36.1875 C 5.953125 -36.1875 5.171875 -36.453125 4.609375 -36.984375 C 4.054688 -37.523438 3.78125 -38.257812 3.78125 -39.1875 C 3.78125 -40.144531 4.054688 -40.875 4.609375 -41.375 C 5.171875 -41.875 5.953125 -42.125 6.953125 -42.125 C 7.992188 -42.125 8.785156 -41.875 9.328125 -41.375 C 9.867188 -40.875 10.140625 -40.144531 10.140625 -39.1875 C 10.140625 -38.257812 9.867188 -37.523438 9.328125 -36.984375 C 8.785156 -36.453125 7.992188 -36.1875 6.953125 -36.1875 Z M 6.953125 -36.1875 "/></g></g></g><g fill="#545454" fill-opacity="1"><g transform="translate(108.896829, 60.75)"><g><path d="M 16.921875 0.546875 C 14.003906 0.546875 11.484375 -0.09375 9.359375 -1.375 C 7.242188 -2.65625 5.613281 -4.445312 4.46875 -6.75 C 3.332031 -9.050781 2.765625 -11.722656 2.765625 -14.765625 C 2.765625 -17.078125 3.082031 -19.15625 3.71875 -21 C 4.363281 -22.84375 5.304688 -24.410156 6.546875 -25.703125 C 7.785156 -27.003906 9.273438 -27.992188 11.015625 -28.671875 C 12.753906 -29.359375 14.722656 -29.703125 16.921875 -29.703125 C 18.359375 -29.703125 19.859375 -29.476562 21.421875 -29.03125 C 22.984375 -28.59375 24.40625 -27.835938 25.6875 -26.765625 C 26.082031 -26.484375 26.335938 -26.140625 26.453125 -25.734375 C 26.578125 -25.335938 26.578125 -24.945312 26.453125 -24.5625 C 26.335938 -24.1875 26.140625 -23.867188 25.859375 -23.609375 C 25.578125 -23.347656 25.226562 -23.195312 24.8125 -23.15625 C 24.394531 -23.113281 23.960938 -23.253906 23.515625 -23.578125 C 22.472656 -24.378906 21.410156 -24.9375 20.328125 -25.25 C 19.253906 -25.570312 18.21875 -25.734375 17.21875 -25.734375 C 15.65625 -25.734375 14.296875 -25.484375 13.140625 -24.984375 C 11.984375 -24.484375 11.003906 -23.773438 10.203125 -22.859375 C 9.398438 -21.941406 8.785156 -20.800781 8.359375 -19.4375 C 7.941406 -18.082031 7.734375 -16.503906 7.734375 -14.703125 C 7.734375 -11.222656 8.550781 -8.472656 10.1875 -6.453125 C 11.832031 -4.429688 14.175781 -3.421875 17.21875 -3.421875 C 18.21875 -3.421875 19.25 -3.578125 20.3125 -3.890625 C 21.375 -4.210938 22.441406 -4.773438 23.515625 -5.578125 C 23.960938 -5.898438 24.382812 -6.039062 24.78125 -6 C 25.175781 -5.957031 25.515625 -5.804688 25.796875 -5.546875 C 26.078125 -5.285156 26.265625 -4.953125 26.359375 -4.546875 C 26.460938 -4.148438 26.453125 -3.757812 26.328125 -3.375 C 26.210938 -3 25.957031 -2.675781 25.5625 -2.40625 C 24.28125 -1.363281 22.878906 -0.609375 21.359375 -0.140625 C 19.835938 0.316406 18.359375 0.546875 16.921875 0.546875 Z M 16.921875 0.546875 "/></g></g></g><g fill="#545454" fill-opacity="1"><g transform="translate(136.6768, 60.75)"><g><path d="M 6.953125 0.421875 C 6.160156 0.421875 5.5625 0.203125 5.15625 -0.234375 C 4.757812 -0.679688 4.5625 -1.300781 4.5625 -2.09375 L 4.5625 -40.265625 C 4.5625 -41.054688 4.757812 -41.660156 5.15625 -42.078125 C 5.5625 -42.503906 6.160156 -42.71875 6.953125 -42.71875 C 7.710938 -42.71875 8.3125 -42.503906 8.75 -42.078125 C 9.195312 -41.660156 9.421875 -41.054688 9.421875 -40.265625 L 9.421875 -16.203125 L 9.546875 -16.203125 L 21.84375 -27.953125 C 22.40625 -28.472656 22.894531 -28.875 23.3125 -29.15625 C 23.726562 -29.4375 24.296875 -29.578125 25.015625 -29.578125 C 25.660156 -29.578125 26.160156 -29.40625 26.515625 -29.0625 C 26.878906 -28.726562 27.050781 -28.3125 27.03125 -27.8125 C 27.007812 -27.3125 26.757812 -26.78125 26.28125 -26.21875 L 13.203125 -13.796875 L 13.203125 -16.4375 L 27.421875 -3.0625 C 27.984375 -2.5 28.265625 -1.957031 28.265625 -1.4375 C 28.265625 -0.914062 28.070312 -0.472656 27.6875 -0.109375 C 27.3125 0.242188 26.820312 0.421875 26.21875 0.421875 C 25.5 0.421875 24.914062 0.269531 24.46875 -0.03125 C 24.03125 -0.332031 23.492188 -0.78125 22.859375 -1.375 L 9.546875 -13.6875 L 9.421875 -13.6875 L 9.421875 -2.09375 C 9.421875 -0.414062 8.597656 0.421875 6.953125 0.421875 Z M 6.953125 0.421875 "/></g></g></g><g fill="#545454" fill-opacity="1"><g transform="translate(166.676775, 60.75)"><g><path d="M 23.515625 0.546875 C 19.359375 0.546875 15.800781 -0.332031 12.84375 -2.09375 C 9.882812 -3.851562 7.613281 -6.351562 6.03125 -9.59375 C 4.445312 -12.832031 3.65625 -16.695312 3.65625 -21.1875 C 3.65625 -24.539062 4.101562 -27.546875 5 -30.203125 C 5.90625 -32.867188 7.207031 -35.128906 8.90625 -36.984375 C 10.601562 -38.847656 12.691406 -40.289062 15.171875 -41.3125 C 17.660156 -42.332031 20.441406 -42.84375 23.515625 -42.84375 C 25.992188 -42.84375 28.351562 -42.488281 30.59375 -41.78125 C 32.832031 -41.082031 34.773438 -40.054688 36.421875 -38.703125 C 36.941406 -38.296875 37.289062 -37.84375 37.46875 -37.34375 C 37.644531 -36.84375 37.660156 -36.363281 37.515625 -35.90625 C 37.378906 -35.445312 37.140625 -35.066406 36.796875 -34.765625 C 36.460938 -34.460938 36.054688 -34.3125 35.578125 -34.3125 C 35.097656 -34.3125 34.554688 -34.515625 33.953125 -34.921875 C 32.515625 -36.078125 30.9375 -36.9375 29.21875 -37.5 C 27.5 -38.0625 25.640625 -38.34375 23.640625 -38.34375 C 20.484375 -38.34375 17.800781 -37.671875 15.59375 -36.328125 C 13.394531 -34.984375 11.734375 -33.03125 10.609375 -30.46875 C 9.492188 -27.914062 8.9375 -24.820312 8.9375 -21.1875 C 8.9375 -17.539062 9.492188 -14.425781 10.609375 -11.84375 C 11.734375 -9.269531 13.394531 -7.3125 15.59375 -5.96875 C 17.800781 -4.625 20.484375 -3.953125 23.640625 -3.953125 C 25.597656 -3.953125 27.457031 -4.242188 29.21875 -4.828125 C 30.976562 -5.410156 32.597656 -6.28125 34.078125 -7.4375 C 34.679688 -7.84375 35.222656 -8.035156 35.703125 -8.015625 C 36.179688 -7.992188 36.578125 -7.84375 36.890625 -7.5625 C 37.210938 -7.28125 37.441406 -6.914062 37.578125 -6.46875 C 37.722656 -6.03125 37.722656 -5.570312 37.578125 -5.09375 C 37.441406 -4.613281 37.132812 -4.195312 36.65625 -3.84375 C 34.976562 -2.40625 33.007812 -1.3125 30.75 -0.5625 C 28.488281 0.175781 26.078125 0.546875 23.515625 0.546875 Z M 23.515625 0.546875 "/></g></g></g><g fill="#545454" fill-opacity="1"><g transform="translate(206.096736, 60.75)"><g><path d="M 13.734375 0.546875 C 11.734375 0.546875 9.941406 0.15625 8.359375 -0.625 C 6.785156 -1.40625 5.535156 -2.472656 4.609375 -3.828125 C 3.691406 -5.191406 3.234375 -6.71875 3.234375 -8.40625 C 3.234375 -10.5625 3.785156 -12.257812 4.890625 -13.5 C 5.992188 -14.738281 7.8125 -15.617188 10.34375 -16.140625 C 12.882812 -16.660156 16.359375 -16.921875 20.765625 -16.921875 L 23.453125 -16.921875 L 23.453125 -13.734375 L 20.8125 -13.734375 C 17.570312 -13.734375 15.019531 -13.582031 13.15625 -13.28125 C 11.300781 -12.988281 10.003906 -12.484375 9.265625 -11.765625 C 8.523438 -11.046875 8.15625 -10.023438 8.15625 -8.703125 C 8.15625 -7.054688 8.722656 -5.710938 9.859375 -4.671875 C 11.003906 -3.640625 12.554688 -3.125 14.515625 -3.125 C 16.117188 -3.125 17.53125 -3.503906 18.75 -4.265625 C 19.96875 -5.023438 20.925781 -6.0625 21.625 -7.375 C 22.332031 -8.695312 22.6875 -10.21875 22.6875 -11.9375 L 22.6875 -18.78125 C 22.6875 -21.257812 22.1875 -23.046875 21.1875 -24.140625 C 20.1875 -25.242188 18.546875 -25.796875 16.265625 -25.796875 C 14.859375 -25.796875 13.453125 -25.613281 12.046875 -25.25 C 10.648438 -24.894531 9.175781 -24.316406 7.625 -23.515625 C 7.0625 -23.234375 6.578125 -23.144531 6.171875 -23.25 C 5.773438 -23.351562 5.457031 -23.5625 5.21875 -23.875 C 4.976562 -24.195312 4.835938 -24.566406 4.796875 -24.984375 C 4.753906 -25.410156 4.84375 -25.820312 5.0625 -26.21875 C 5.289062 -26.613281 5.644531 -26.9375 6.125 -27.1875 C 7.882812 -28.0625 9.625 -28.695312 11.34375 -29.09375 C 13.0625 -29.5 14.703125 -29.703125 16.265625 -29.703125 C 18.785156 -29.703125 20.863281 -29.289062 22.5 -28.46875 C 24.132812 -27.644531 25.351562 -26.40625 26.15625 -24.75 C 26.957031 -23.09375 27.359375 -20.960938 27.359375 -18.359375 L 27.359375 -2.09375 C 27.359375 -1.300781 27.164062 -0.679688 26.78125 -0.234375 C 26.40625 0.203125 25.859375 0.421875 25.140625 0.421875 C 24.378906 0.421875 23.796875 0.203125 23.390625 -0.234375 C 22.992188 -0.679688 22.796875 -1.300781 22.796875 -2.09375 L 22.796875 -6.78125 L 23.34375 -6.78125 C 23.019531 -5.257812 22.40625 -3.957031 21.5 -2.875 C 20.601562 -1.800781 19.492188 -0.960938 18.171875 -0.359375 C 16.859375 0.242188 15.378906 0.546875 13.734375 0.546875 Z M 13.734375 0.546875 "/></g></g></g><g fill="#545454" fill-opacity="1"><g transform="translate(237.896707, 60.75)"><g><path d="M 7.015625 0.421875 C 6.210938 0.421875 5.601562 0.203125 5.1875 -0.234375 C 4.769531 -0.679688 4.5625 -1.300781 4.5625 -2.09375 L 4.5625 -27.125 C 4.5625 -27.914062 4.757812 -28.519531 5.15625 -28.9375 C 5.5625 -29.363281 6.144531 -29.578125 6.90625 -29.578125 C 7.664062 -29.578125 8.253906 -29.363281 8.671875 -28.9375 C 9.085938 -28.519531 9.296875 -27.914062 9.296875 -27.125 L 9.296875 -22.265625 L 8.703125 -22.265625 C 9.335938 -24.617188 10.554688 -26.4375 12.359375 -27.71875 C 14.160156 -29 16.378906 -29.679688 19.015625 -29.765625 C 19.617188 -29.796875 20.097656 -29.660156 20.453125 -29.359375 C 20.816406 -29.066406 21.019531 -28.5625 21.0625 -27.84375 C 21.101562 -27.15625 20.941406 -26.613281 20.578125 -26.21875 C 20.222656 -25.820312 19.664062 -25.582031 18.90625 -25.5 L 17.9375 -25.375 C 15.21875 -25.132812 13.128906 -24.265625 11.671875 -22.765625 C 10.210938 -21.265625 9.484375 -19.21875 9.484375 -16.625 L 9.484375 -2.09375 C 9.484375 -1.300781 9.269531 -0.679688 8.84375 -0.234375 C 8.425781 0.203125 7.816406 0.421875 7.015625 0.421875 Z M 7.015625 0.421875 "/></g></g></g><g fill="#545454" fill-opacity="1"><g transform="translate(260.936684, 60.75)"><g><path d="M 16.265625 0.546875 C 13.984375 0.546875 12.070312 0.132812 10.53125 -0.6875 C 8.988281 -1.507812 7.835938 -2.707031 7.078125 -4.28125 C 6.316406 -5.863281 5.9375 -7.796875 5.9375 -10.078125 L 5.9375 -25.375 L 1.921875 -25.375 C 1.242188 -25.375 0.722656 -25.546875 0.359375 -25.890625 C -0.00390625 -26.234375 -0.1875 -26.703125 -0.1875 -27.296875 C -0.1875 -27.898438 -0.00390625 -28.359375 0.359375 -28.671875 C 0.722656 -28.992188 1.242188 -29.15625 1.921875 -29.15625 L 5.9375 -29.15625 L 5.9375 -36.0625 C 5.9375 -36.863281 6.15625 -37.472656 6.59375 -37.890625 C 7.039062 -38.304688 7.644531 -38.515625 8.40625 -38.515625 C 9.164062 -38.515625 9.753906 -38.304688 10.171875 -37.890625 C 10.585938 -37.472656 10.796875 -36.863281 10.796875 -36.0625 L 10.796875 -29.15625 L 18.359375 -29.15625 C 19.035156 -29.15625 19.550781 -28.992188 19.90625 -28.671875 C 20.269531 -28.359375 20.453125 -27.898438 20.453125 -27.296875 C 20.453125 -26.703125 20.269531 -26.234375 19.90625 -25.890625 C 19.550781 -25.546875 19.035156 -25.375 18.359375 -25.375 L 10.796875 -25.375 L 10.796875 -10.5625 C 10.796875 -8.28125 11.273438 -6.546875 12.234375 -5.359375 C 13.203125 -4.179688 14.765625 -3.59375 16.921875 -3.59375 C 17.679688 -3.59375 18.332031 -3.671875 18.875 -3.828125 C 19.414062 -3.992188 19.863281 -4.078125 20.21875 -4.078125 C 20.582031 -4.117188 20.882812 -4 21.125 -3.71875 C 21.363281 -3.4375 21.484375 -2.957031 21.484375 -2.28125 C 21.484375 -1.800781 21.390625 -1.359375 21.203125 -0.953125 C 21.023438 -0.554688 20.71875 -0.28125 20.28125 -0.125 C 19.800781 0.0390625 19.171875 0.191406 18.390625 0.328125 C 17.609375 0.472656 16.898438 0.546875 16.265625 0.546875 Z M 16.265625 0.546875 "/></g></g></g><g fill="#545454" fill-opacity="1"><g transform="translate(281.936659, 60.75)"><g/></g></g><g fill="#545454" fill-opacity="1"><g transform="translate(297.416646, 60.75)"><g><path d="M 18.90625 0.546875 C 17.019531 0.546875 15.175781 0.382812 13.375 0.0625 C 11.582031 -0.257812 9.914062 -0.71875 8.375 -1.3125 C 6.832031 -1.914062 5.441406 -2.675781 4.203125 -3.59375 C 3.722656 -3.957031 3.390625 -4.367188 3.203125 -4.828125 C 3.023438 -5.285156 2.984375 -5.742188 3.078125 -6.203125 C 3.179688 -6.671875 3.382812 -7.0625 3.6875 -7.375 C 3.988281 -7.695312 4.359375 -7.878906 4.796875 -7.921875 C 5.234375 -7.960938 5.710938 -7.820312 6.234375 -7.5 C 8.035156 -6.21875 9.957031 -5.285156 12 -4.703125 C 14.039062 -4.128906 16.34375 -3.84375 18.90625 -3.84375 C 22.5 -3.84375 25.164062 -4.507812 26.90625 -5.84375 C 28.644531 -7.1875 29.515625 -8.957031 29.515625 -11.15625 C 29.515625 -12.957031 28.882812 -14.367188 27.625 -15.390625 C 26.363281 -16.410156 24.253906 -17.21875 21.296875 -17.8125 L 15.0625 -19.078125 C 11.300781 -19.878906 8.488281 -21.1875 6.625 -23 C 4.769531 -24.820312 3.84375 -27.253906 3.84375 -30.296875 C 3.84375 -32.179688 4.222656 -33.890625 4.984375 -35.421875 C 5.742188 -36.960938 6.800781 -38.285156 8.15625 -39.390625 C 9.519531 -40.492188 11.140625 -41.34375 13.015625 -41.9375 C 14.898438 -42.539062 16.984375 -42.84375 19.265625 -42.84375 C 21.785156 -42.84375 24.132812 -42.488281 26.3125 -41.78125 C 28.488281 -41.082031 30.457031 -40.035156 32.21875 -38.640625 C 32.65625 -38.273438 32.953125 -37.863281 33.109375 -37.40625 C 33.273438 -36.945312 33.296875 -36.503906 33.171875 -36.078125 C 33.054688 -35.660156 32.847656 -35.3125 32.546875 -35.03125 C 32.242188 -34.757812 31.863281 -34.601562 31.40625 -34.5625 C 30.945312 -34.519531 30.4375 -34.679688 29.875 -35.046875 C 28.28125 -36.242188 26.617188 -37.109375 24.890625 -37.640625 C 23.171875 -38.179688 21.273438 -38.453125 19.203125 -38.453125 C 17.078125 -38.453125 15.242188 -38.132812 13.703125 -37.5 C 12.171875 -36.863281 10.972656 -35.929688 10.109375 -34.703125 C 9.242188 -33.484375 8.8125 -32.078125 8.8125 -30.484375 C 8.8125 -28.554688 9.398438 -27.03125 10.578125 -25.90625 C 11.765625 -24.789062 13.695312 -23.972656 16.375 -23.453125 L 22.625 -22.140625 C 26.664062 -21.296875 29.65625 -20.023438 31.59375 -18.328125 C 33.53125 -16.628906 34.5 -14.320312 34.5 -11.40625 C 34.5 -9.644531 34.140625 -8.019531 33.421875 -6.53125 C 32.703125 -5.050781 31.660156 -3.78125 30.296875 -2.71875 C 28.941406 -1.664062 27.300781 -0.859375 25.375 -0.296875 C 23.457031 0.265625 21.300781 0.546875 18.90625 0.546875 Z M 18.90625 0.546875 "/></g></g></g><g fill="#545454" fill-opacity="1"><g transform="translate(334.196605, 60.75)"><g><path d="M 16.265625 0.546875 C 13.984375 0.546875 12.070312 0.132812 10.53125 -0.6875 C 8.988281 -1.507812 7.835938 -2.707031 7.078125 -4.28125 C 6.316406 -5.863281 5.9375 -7.796875 5.9375 -10.078125 L 5.9375 -25.375 L 1.921875 -25.375 C 1.242188 -25.375 0.722656 -25.546875 0.359375 -25.890625 C -0.00390625 -26.234375 -0.1875 -26.703125 -0.1875 -27.296875 C -0.1875 -27.898438 -0.00390625 -28.359375 0.359375 -28.671875 C 0.722656 -28.992188 1.242188 -29.15625 1.921875 -29.15625 L 5.9375 -29.15625 L 5.9375 -36.0625 C 5.9375 -36.863281 6.15625 -37.472656 6.59375 -37.890625 C 7.039062 -38.304688 7.644531 -38.515625 8.40625 -38.515625 C 9.164062 -38.515625 9.753906 -38.304688 10.171875 -37.890625 C 10.585938 -37.472656 10.796875 -36.863281 10.796875 -36.0625 L 10.796875 -29.15625 L 18.359375 -29.15625 C 19.035156 -29.15625 19.550781 -28.992188 19.90625 -28.671875 C 20.269531 -28.359375 20.453125 -27.898438 20.453125 -27.296875 C 20.453125 -26.703125 20.269531 -26.234375 19.90625 -25.890625 C 19.550781 -25.546875 19.035156 -25.375 18.359375 -25.375 L 10.796875 -25.375 L 10.796875 -10.5625 C 10.796875 -8.28125 11.273438 -6.546875 12.234375 -5.359375 C 13.203125 -4.179688 14.765625 -3.59375 16.921875 -3.59375 C 17.679688 -3.59375 18.332031 -3.671875 18.875 -3.828125 C 19.414062 -3.992188 19.863281 -4.078125 20.21875 -4.078125 C 20.582031 -4.117188 20.882812 -4 21.125 -3.71875 C 21.363281 -3.4375 21.484375 -2.957031 21.484375 -2.28125 C 21.484375 -1.800781 21.390625 -1.359375 21.203125 -0.953125 C 21.023438 -0.554688 20.71875 -0.28125 20.28125 -0.125 C 19.800781 0.0390625 19.171875 0.191406 18.390625 0.328125 C 17.609375 0.472656 16.898438 0.546875 16.265625 0.546875 Z M 16.265625 0.546875 "/></g></g></g><g fill="#545454" fill-opacity="1"><g transform="translate(354.896586, 60.75)"><g><path d="M 16.6875 0.546875 C 13.84375 0.546875 11.378906 -0.0703125 9.296875 -1.3125 C 7.222656 -2.5625 5.613281 -4.3125 4.46875 -6.5625 C 3.332031 -8.820312 2.765625 -11.492188 2.765625 -14.578125 C 2.765625 -16.898438 3.082031 -18.988281 3.71875 -20.84375 C 4.363281 -22.707031 5.304688 -24.296875 6.546875 -25.609375 C 7.785156 -26.929688 9.253906 -27.941406 10.953125 -28.640625 C 12.648438 -29.347656 14.5625 -29.703125 16.6875 -29.703125 C 19.519531 -29.703125 21.976562 -29.082031 24.0625 -27.84375 C 26.144531 -26.601562 27.753906 -24.851562 28.890625 -22.59375 C 30.023438 -20.332031 30.59375 -17.660156 30.59375 -14.578125 C 30.59375 -12.253906 30.273438 -10.171875 29.640625 -8.328125 C 29.003906 -6.492188 28.0625 -4.90625 26.8125 -3.5625 C 25.570312 -2.226562 24.101562 -1.207031 22.40625 -0.5 C 20.707031 0.195312 18.800781 0.546875 16.6875 0.546875 Z M 16.6875 -3.359375 C 18.476562 -3.359375 20.050781 -3.796875 21.40625 -4.671875 C 22.769531 -5.554688 23.820312 -6.835938 24.5625 -8.515625 C 25.3125 -10.203125 25.6875 -12.222656 25.6875 -14.578125 C 25.6875 -18.222656 24.875 -21.003906 23.25 -22.921875 C 21.625 -24.835938 19.4375 -25.796875 16.6875 -25.796875 C 14.84375 -25.796875 13.25 -25.363281 11.90625 -24.5 C 10.570312 -23.644531 9.535156 -22.382812 8.796875 -20.71875 C 8.054688 -19.0625 7.6875 -17.015625 7.6875 -14.578125 C 7.6875 -10.984375 8.503906 -8.210938 10.140625 -6.265625 C 11.773438 -4.328125 13.957031 -3.359375 16.6875 -3.359375 Z M 16.6875 -3.359375 "/></g></g></g><g fill="#545454" fill-opacity="1"><g transform="translate(388.256547, 60.75)"><g><path d="M 7.015625 0.421875 C 6.210938 0.421875 5.601562 0.203125 5.1875 -0.234375 C 4.769531 -0.679688 4.5625 -1.300781 4.5625 -2.09375 L 4.5625 -27.125 C 4.5625 -27.914062 4.757812 -28.519531 5.15625 -28.9375 C 5.5625 -29.363281 6.144531 -29.578125 6.90625 -29.578125 C 7.664062 -29.578125 8.253906 -29.363281 8.671875 -28.9375 C 9.085938 -28.519531 9.296875 -27.914062 9.296875 -27.125 L 9.296875 -22.265625 L 8.703125 -22.265625 C 9.335938 -24.617188 10.554688 -26.4375 12.359375 -27.71875 C 14.160156 -29 16.378906 -29.679688 19.015625 -29.765625 C 19.617188 -29.796875 20.097656 -29.660156 20.453125 -29.359375 C 20.816406 -29.066406 21.019531 -28.5625 21.0625 -27.84375 C 21.101562 -27.15625 20.941406 -26.613281 20.578125 -26.21875 C 20.222656 -25.820312 19.664062 -25.582031 18.90625 -25.5 L 17.9375 -25.375 C 15.21875 -25.132812 13.128906 -24.265625 11.671875 -22.765625 C 10.210938 -21.265625 9.484375 -19.21875 9.484375 -16.625 L 9.484375 -2.09375 C 9.484375 -1.300781 9.269531 -0.679688 8.84375 -0.234375 C 8.425781 0.203125 7.816406 0.421875 7.015625 0.421875 Z M 7.015625 0.421875 "/></g></g></g><g fill="#545454" fill-opacity="1"><g transform="translate(409.376525, 60.75)"><g><path d="M 17.703125 0.546875 C 14.617188 0.546875 11.96875 -0.0625 9.75 -1.28125 C 7.53125 -2.507812 5.8125 -4.242188 4.59375 -6.484375 C 3.375 -8.722656 2.765625 -11.398438 2.765625 -14.515625 C 2.765625 -17.554688 3.363281 -20.207031 4.5625 -22.46875 C 5.757812 -24.726562 7.40625 -26.5 9.5 -27.78125 C 11.601562 -29.0625 14.035156 -29.703125 16.796875 -29.703125 C 18.753906 -29.703125 20.515625 -29.367188 22.078125 -28.703125 C 23.640625 -28.046875 24.96875 -27.097656 26.0625 -25.859375 C 27.164062 -24.617188 28.003906 -23.117188 28.578125 -21.359375 C 29.160156 -19.597656 29.453125 -17.617188 29.453125 -15.421875 C 29.453125 -14.773438 29.269531 -14.300781 28.90625 -14 C 28.550781 -13.707031 28.035156 -13.5625 27.359375 -13.5625 L 6.484375 -13.5625 L 6.484375 -16.734375 L 26.21875 -16.734375 L 25.265625 -15.953125 C 25.265625 -18.117188 24.941406 -19.953125 24.296875 -21.453125 C 23.660156 -22.953125 22.734375 -24.097656 21.515625 -24.890625 C 20.296875 -25.691406 18.765625 -26.09375 16.921875 -26.09375 C 14.878906 -26.09375 13.144531 -25.625 11.71875 -24.6875 C 10.300781 -23.75 9.234375 -22.445312 8.515625 -20.78125 C 7.796875 -19.125 7.4375 -17.195312 7.4375 -15 L 7.4375 -14.640625 C 7.4375 -10.960938 8.328125 -8.160156 10.109375 -6.234375 C 11.890625 -4.316406 14.421875 -3.359375 17.703125 -3.359375 C 19.054688 -3.359375 20.40625 -3.535156 21.75 -3.890625 C 23.09375 -4.253906 24.40625 -4.859375 25.6875 -5.703125 C 26.238281 -6.054688 26.742188 -6.222656 27.203125 -6.203125 C 27.671875 -6.191406 28.039062 -6.054688 28.3125 -5.796875 C 28.59375 -5.535156 28.785156 -5.210938 28.890625 -4.828125 C 28.992188 -4.453125 28.953125 -4.039062 28.765625 -3.59375 C 28.585938 -3.15625 28.238281 -2.773438 27.71875 -2.453125 C 26.394531 -1.492188 24.832031 -0.753906 23.03125 -0.234375 C 21.238281 0.285156 19.460938 0.546875 17.703125 0.546875 Z M 17.703125 0.546875 "/></g></g></g></g></g></g></g></g><g clip-path="url(#c309cee795)"><path fill="#ffffff" d="M 138.960938 46.992188 C 138.277344 46.160156 137.257812 45.679688 136.179688 45.679688 L 74.625 45.679688 L 71.660156 35.726562 C 71.207031 34.199219 69.800781 33.148438 68.203125 33.148438 L 57.1875 33.148438 C 55.195312 33.148438 53.582031 34.765625 53.582031 36.757812 C 53.582031 38.75 55.195312 40.363281 57.1875 40.363281 L 65.511719 40.363281 L 78.996094 85.65625 C 77.535156 88.335938 76.148438 92.171875 77.71875 95.382812 C 79.113281 98.230469 82.257812 99.671875 87.066406 99.671875 C 87.152344 99.671875 87.238281 99.667969 87.328125 99.660156 C 87.640625 99.632812 118.722656 96.78125 129.4375 97.390625 C 131 97.472656 132.351562 96.277344 132.441406 94.707031 C 132.53125 93.136719 131.328125 91.789062 129.757812 91.703125 C 118.878906 91.089844 89.496094 93.742188 86.9375 93.976562 C 84.300781 93.957031 83.082031 93.378906 82.835938 92.882812 C 82.566406 92.328125 82.757812 91.285156 83.214844 90.101562 C 83.292969 90.097656 83.367188 90.097656 83.445312 90.085938 L 130.535156 84.390625 C 132.09375 84.203125 133.347656 83.03125 133.644531 81.492188 L 139.722656 49.972656 C 139.925781 48.914062 139.644531 47.820312 138.960938 46.992188 Z M 112.824219 64.492188 L 98.015625 64.492188 L 98.015625 52.894531 L 112.824219 52.894531 Z M 81.242188 67.910156 L 94.597656 67.910156 L 94.597656 81.46875 L 85.601562 82.558594 Z M 98.015625 67.910156 L 112.824219 67.910156 L 112.824219 79.265625 L 98.015625 81.054688 Z M 129.574219 64.492188 L 116.242188 64.492188 L 116.242188 52.894531 L 131.8125 52.894531 Z M 94.597656 52.894531 L 94.597656 64.492188 L 80.222656 64.492188 L 76.773438 52.894531 Z M 116.242188 78.851562 L 116.242188 67.910156 L 128.914062 67.910156 L 127.058594 77.542969 Z M 116.242188 78.851562 " fill-opacity="1" fill-rule="nonzero"/></g><path fill="#ffffff" d="M 89.847656 109.664062 C 89.847656 110.136719 89.804688 110.605469 89.710938 111.070312 C 89.617188 111.53125 89.480469 111.984375 89.300781 112.421875 C 89.117188 112.859375 88.898438 113.273438 88.632812 113.667969 C 88.371094 114.0625 88.070312 114.425781 87.738281 114.757812 C 87.402344 115.09375 87.039062 115.394531 86.644531 115.65625 C 86.25 115.917969 85.835938 116.140625 85.398438 116.324219 C 84.960938 116.503906 84.511719 116.640625 84.046875 116.734375 C 83.582031 116.824219 83.113281 116.871094 82.640625 116.871094 C 82.167969 116.871094 81.699219 116.824219 81.234375 116.734375 C 80.769531 116.640625 80.320312 116.503906 79.882812 116.324219 C 79.445312 116.140625 79.027344 115.917969 78.636719 115.65625 C 78.242188 115.394531 77.878906 115.09375 77.542969 114.757812 C 77.207031 114.425781 76.910156 114.0625 76.648438 113.667969 C 76.382812 113.273438 76.160156 112.859375 75.980469 112.421875 C 75.800781 111.984375 75.664062 111.53125 75.570312 111.070312 C 75.476562 110.605469 75.433594 110.136719 75.433594 109.664062 C 75.433594 109.1875 75.476562 108.71875 75.570312 108.257812 C 75.664062 107.792969 75.800781 107.339844 75.980469 106.902344 C 76.160156 106.464844 76.382812 106.050781 76.648438 105.65625 C 76.910156 105.265625 77.207031 104.898438 77.542969 104.566406 C 77.878906 104.230469 78.242188 103.929688 78.636719 103.667969 C 79.027344 103.40625 79.445312 103.183594 79.882812 103.003906 C 80.320312 102.820312 80.769531 102.683594 81.234375 102.59375 C 81.699219 102.5 82.167969 102.453125 82.640625 102.453125 C 83.113281 102.453125 83.582031 102.5 84.046875 102.59375 C 84.511719 102.683594 84.960938 102.820312 85.398438 103.003906 C 85.835938 103.183594 86.25 103.40625 86.644531 103.667969 C 87.039062 103.929688 87.402344 104.230469 87.738281 104.566406 C 88.070312 104.898438 88.371094 105.265625 88.632812 105.65625 C 88.898438 106.050781 89.117188 106.464844 89.300781 106.902344 C 89.480469 107.339844 89.617188 107.792969 89.710938 108.257812 C 89.804688 108.71875 89.847656 109.1875 89.847656 109.664062 Z M 89.847656 109.664062 " fill-opacity="1" fill-rule="nonzero"/><path fill="#ffffff" d="M 130.863281 109.664062 C 130.863281 110.136719 130.816406 110.605469 130.722656 111.070312 C 130.632812 111.53125 130.496094 111.984375 130.3125 112.421875 C 130.132812 112.859375 129.910156 113.273438 129.648438 113.667969 C 129.382812 114.0625 129.085938 114.425781 128.75 114.757812 C 128.417969 115.09375 128.050781 115.394531 127.660156 115.65625 C 127.265625 115.917969 126.847656 116.140625 126.414062 116.324219 C 125.976562 116.503906 125.523438 116.640625 125.058594 116.734375 C 124.597656 116.824219 124.128906 116.871094 123.652344 116.871094 C 123.179688 116.871094 122.710938 116.824219 122.246094 116.734375 C 121.78125 116.640625 121.332031 116.503906 120.894531 116.324219 C 120.457031 116.140625 120.042969 115.917969 119.648438 115.65625 C 119.253906 115.394531 118.890625 115.09375 118.554688 114.757812 C 118.222656 114.425781 117.921875 114.0625 117.660156 113.667969 C 117.398438 113.273438 117.175781 112.859375 116.992188 112.421875 C 116.8125 111.984375 116.675781 111.53125 116.582031 111.070312 C 116.492188 110.605469 116.445312 110.136719 116.445312 109.664062 C 116.445312 109.1875 116.492188 108.71875 116.582031 108.257812 C 116.675781 107.792969 116.8125 107.339844 116.992188 106.902344 C 117.175781 106.464844 117.398438 106.050781 117.660156 105.65625 C 117.921875 105.265625 118.222656 104.898438 118.554688 104.566406 C 118.890625 104.230469 119.253906 103.929688 119.648438 103.667969 C 120.042969 103.40625 120.457031 103.183594 120.894531 103.003906 C 121.332031 102.820312 121.78125 102.683594 122.246094 102.59375 C 122.710938 102.5 123.179688 102.453125 123.652344 102.453125 C 124.128906 102.453125 124.597656 102.5 125.058594 102.59375 C 125.523438 102.683594 125.976562 102.820312 126.414062 103.003906 C 126.847656 103.183594 127.265625 103.40625 127.660156 103.667969 C 128.050781 103.929688 128.417969 104.230469 128.75 104.566406 C 129.085938 104.898438 129.382812 105.265625 129.648438 105.65625 C 129.910156 106.050781 130.132812 106.464844 130.3125 106.902344 C 130.496094 107.339844 130.632812 107.792969 130.722656 108.257812 C 130.816406 108.71875 130.863281 109.1875 130.863281 109.664062 Z M 130.863281 109.664062 " fill-opacity="1" fill-rule="nonzero"/></svg>